<svg id="Слой_1" xmlns="http://www.w3.org/2000/svg" xmlns:xlink="http://www.w3.org/1999/xlink" viewBox="0 0 1185 757"><style>.st0{opacity:.3;enable-background:new}.st0,.st1{fill:#fff}.st2{fill:#f7941d}.st3{font-family:&apos;MyriadPro-Regular&apos;}.st4{font-size:24.5971px}.st5{font-size:12.2983px}.st6{opacity:.51;fill:#fff;enable-background:new}</style><image width="1185" height="757" xlink:href="sections.jpg" overflow="visible" id="картинка"/><g id="_x31_"><path class="st0" d="M582 51l-42 26.3 1.7 70-10.4 8-3.3 8.7 11 252.7 95.6 44.1 64-72.8 23.1-257.7L710 133l5-77-39.7-9-10.6-13.7-28.7-6-32.7 2L582 40z"/><g id="g4823_2_"><g id="g4825_2_"><path id="polygon4827_2_" class="st1" d="M622.8 63.2h-4.6l4.6 10z"/><path id="polygon4829_2_" class="st1" d="M622.8 63.2h5.4l-5.4 10z"/></g><circle id="circle4831_2_" class="st1" cx="622.8" cy="37.2" r="27"/><circle id="circle4833_2_" class="st2" cx="622.8" cy="37.2" r="24"/><text id="text4835_2_" transform="translate(616.524 38.163)" class="st1 st3 st4">8</text><text id="text4837_2_" transform="translate(612.78 51.842)" class="st1 st3 st5">стр.</text></g></g><g id="_x32_"><path class="st6" d="M164 257.3l-88.7 52.2L131.8 441l26.2 14-16.5-41.2 32.3-23.3 4 7 23.5-17-.8-3.5 8.8-6.2v-4.3l2.2 1.3 7.8 4 4.2-2.5 45 22.5-28-101.8z"/><g id="g4823_1_"><g id="g4825_1_"><path id="polygon4827_1_" class="st1" d="M156.5 289.7h-4.6l4.6 10z"/><path id="polygon4829_1_" class="st1" d="M156.5 289.7h5.4l-5.4 10z"/></g><circle id="circle4831_1_" class="st1" cx="156.5" cy="263.7" r="27"/><circle id="circle4833_1_" class="st2" cx="156.5" cy="263.7" r="24"/><text id="text4835_1_" transform="translate(150.187 264.663)" class="st1 st3 st4">8</text><text id="text4837_1_" transform="translate(146.442 278.342)" class="st1 st3 st5">стр.</text></g></g><g id="_x33_-1"><path class="st6" d="M269.3 563l-110.6-63 11.6-8-28.8-78.2 32.3-23.3 4 7 23.5-17-.8-3.5 8.8-6.2v-4.3l10 5.3 4.2-2.5 89.6 40.2-74.8 53.5z"/><g id="g4823_3_"><g id="g4825_3_"><path id="polygon4827_3_" class="st1" d="M223 420h-4.5l4.5 10z"/><path id="polygon4829_3_" class="st1" d="M223 420h5.5l-5.5 10z"/></g><circle id="circle4831_3_" class="st1" cx="223" cy="394" r="27"/><circle id="circle4833_3_" class="st2" cx="223" cy="394" r="24"/><text id="text4835_3_" transform="translate(216.766 394.997)" class="st1 st3 st4">8</text><text id="text4837_3_" transform="translate(213.021 408.675)" class="st1 st3 st5">стр.</text></g></g><g id="_x33_-2"><path class="st6" d="M313.1 409.5l65.2 29.2-3.7 4 4.7 2.3-6.1 6.7 9.6 38.9 15.9 78.7-41.4 44.4-88-50.7-31-100z"/><g id="g4823_7_"><g id="g4825_7_"><path id="polygon4827_7_" class="st1" d="M329.7 476.4h-4.5l4.5 10z"/><path id="polygon4829_7_" class="st1" d="M329.7 476.4h5.5l-5.5 10z"/></g><circle id="circle4831_7_" class="st1" cx="329.7" cy="450.4" r="27"/><circle id="circle4833_7_" class="st2" cx="329.7" cy="450.4" r="24"/><text id="text4835_7_" transform="translate(323.433 451.33)" class="st1 st3 st4">8</text><text id="text4837_7_" transform="translate(319.688 465.009)" class="st1 st3 st5">стр.</text></g></g><g id="_x34_"><path class="st6" d="M550.3 528.3L517 512.7l-3.3 3.6-5.7-2.6-21.7 21-5-3.7-8.6 7-36.4 37 3.7 3.3 1.3 15-42.6-24-25.5-117.6 6.1-6.7-4.7-2.3 65.4-57 12-2.7 94.7 41.3z"/><g id="g4823_4_"><g id="g4825_4_"><path id="polygon4827_4_" class="st1" d="M462.7 431.7h-4.5l4.5 10z"/><path id="polygon4829_4_" class="st1" d="M462.7 431.7h5.5l-5.5 10z"/></g><circle id="circle4831_4_" class="st1" cx="462.7" cy="405.7" r="27"/><circle id="circle4833_4_" class="st2" cx="462.7" cy="405.7" r="24"/><text id="text4835_4_" transform="translate(456.433 406.663)" class="st1 st3 st4">8</text><text id="text4837_4_" transform="translate(452.688 420.342)" class="st1 st3 st5">стр.</text></g></g><g id="_x35_-1"><path class="st6" d="M574.5 737l-136.2-76 10.2-12-8.5-70.7-3.7-3.3 45-44 5 3.7 21.7-21 5.7 2.6 3.3-3.6 33.3 15.6 34.2 12.2 51 24.5-61.5 76z"/><g id="g4823_5_"><g id="g4825_5_"><path id="polygon4827_5_" class="st1" d="M543.5 578.7h-4.6l4.6 10z"/><path id="polygon4829_5_" class="st1" d="M543.5 578.7h5.4l-5.4 10z"/></g><circle id="circle4831_5_" class="st1" cx="543.5" cy="552.7" r="27"/><circle id="circle4833_5_" class="st2" cx="543.5" cy="552.7" r="24"/><text id="text4835_5_" transform="translate(537.21 553.663)" class="st1 st3 st4">8</text><text id="text4837_5_" transform="translate(533.465 567.342)" class="st1 st3 st5">стр.</text></g></g><g id="_x35_-2"><path class="st6" d="M691 590.3l64.5 37.2-6 8.5-5.5 48.5 4.5 2-.5 12-11.5 58.5-128-.5-34-19.5-.5-96 61.5-76z"/><g id="g4823_8_"><g id="g4825_8_"><path id="polygon4827_8_" class="st1" d="M678.5 647.2h-4.6l4.6 10z"/><path id="polygon4829_8_" class="st1" d="M678.5 647.2h5.4l-5.4 10z"/></g><circle id="circle4831_8_" class="st1" cx="678.5" cy="621.2" r="27"/><circle id="circle4833_8_" class="st2" cx="678.5" cy="621.2" r="24"/><text id="text4835_8_" transform="translate(672.21 622.163)" class="st1 st3 st4">8</text><text id="text4837_8_" transform="translate(668.465 635.842)" class="st1 st3 st5">стр.</text></g></g><g id="_x36_"><path class="st6" d="M899.8 757L960 614.3l-6.7-13.8-133-58.7-12.8 4.5-52 81.2-6 8.5-5.5 48.5 4.5 2-.5 12-11.5 58.5z"/><g id="g4823_6_"><g id="g4825_6_"><path id="polygon4827_6_" class="st1" d="M861.9 601.5h-4.6l4.6 10z"/><path id="polygon4829_6_" class="st1" d="M861.9 601.5h5.4l-5.4 10z"/></g><circle id="circle4831_6_" class="st1" cx="861.9" cy="575.5" r="27"/><circle id="circle4833_6_" class="st2" cx="861.9" cy="575.5" r="24"/><text id="text4835_6_" transform="translate(855.543 576.494)" class="st1 st3 st4">8</text><text id="text4837_6_" transform="translate(851.799 590.173)" class="st1 st3 st5">стр.</text></g></g></svg>