<svg xmlns="http://www.w3.org/2000/svg" xmlns:xlink="http://www.w3.org/1999/xlink" width="1920" height="1180" viewBox="0.004 0.003 1920 1180"><image overflow="visible" width="1920" height="1180" xlink:href="sections.jpg" transform="translate(.004 .003)"/><image overflow="visible" width="1920" height="1180" xlink:href="sections.jpg" transform="translate(.004 .003)"/><path opacity=".52" fill="#FFF" d="M1853.834 447.833l-51 37.334-47-18.667 42.667-160 11.666-19 10-5.985 31-17.348 18.667 5.669 29.333 13.679z"/><path d="M1850.443 287.504h-4.584l4.584 10zm0 0h5.416l-5.416 10z" fill="#FFF"/><circle fill="#FFF" cx="1850.443" cy="261.504" r="27"/><circle fill="#F7941D" cx="1850.443" cy="261.504" r="24"/><text transform="translate(1844.133 262.504)" fill="#FFF" font-family="'MyriadPro-Regular'" font-size="24.597">8</text><text transform="translate(1840.389 276.183)" fill="#FFF" font-family="'MyriadPro-Regular'" font-size="12.298">стр.</text><path opacity=".52" fill="#FFF" d="M1760.03 310.515l26.47-112.265-7.75-12.25-83.517-12.198-26.983 5.38-7.5 10.568-27.536 127.999 28.667-12.333 91.119-1.667"/><path d="M1728.443 188.504h-4.584l4.584 10zm0 0h5.416l-5.416 10z" fill="#FFF"/><circle fill="#FFF" cx="1728.443" cy="162.504" r="27"/><circle fill="#F7941D" cx="1728.443" cy="162.504" r="24"/><text transform="translate(1722.133 163.504)" fill="#FFF" font-family="'MyriadPro-Regular'" font-size="24.597">8</text><text transform="translate(1718.389 177.183)" fill="#FFF" font-family="'MyriadPro-Regular'" font-size="12.298">стр.</text><path opacity=".52" fill="#FFF" d="M1738 498l43.5-167-28.5-27.251-91.119 1.667-28.667 12.333L1599 481l14.5 20 10.5 2.5z"/><path d="M1709.492 320.836h-4.584l4.584 10zm0 0h5.416l-5.416 10z" fill="#FFF"/><circle fill="#FFF" cx="1709.492" cy="294.836" r="27"/><circle fill="#F7941D" cx="1709.492" cy="294.836" r="24"/><text transform="translate(1703.183 295.836)" fill="#FFF" font-family="'MyriadPro-Regular'" font-size="24.597">8</text><text transform="translate(1699.439 309.515)" fill="#FFF" font-family="'MyriadPro-Regular'" font-size="12.298">стр.</text><path opacity=".52" fill="#FFF" d="M1552.498 119.85l-31.331 187.983-21.015 10-74.529-25.997 18.875-127.003-8.333-12.666-6.665-2.247 5.665-46.07 21.667-7.334 23.668-3.666 63.665 16.333z"/><path d="M1484.444 157.17h-4.584l4.584 10zm0 0h5.416l-5.416 10z" fill="#FFF"/><circle fill="#FFF" cx="1484.444" cy="131.17" r="27"/><circle fill="#F7941D" cx="1484.444" cy="131.17" r="24"/><text transform="translate(1478.134 132.17)" fill="#FFF" font-family="'MyriadPro-Regular'" font-size="24.597">8</text><text transform="translate(1474.39 145.849)" fill="#FFF" font-family="'MyriadPro-Regular'" font-size="12.298">стр.</text><path opacity=".52" fill="#FFF" d="M1444.498 164.833l-21.242 144.055-113.643-37.806 13.552-124.249 21.667-7.333 23.668-3.667 67.665 16.334z"/><path d="M1376.444 179.67h-4.584l4.584 10zm0 0h5.416l-5.416 10z" fill="#FFF"/><circle fill="#FFF" cx="1376.444" cy="153.67" r="27"/><circle fill="#F7941D" cx="1376.444" cy="153.67" r="24"/><text transform="translate(1370.134 154.67)" fill="#FFF" font-family="'MyriadPro-Regular'" font-size="24.597">8</text><text transform="translate(1366.39 168.349)" fill="#FFF" font-family="'MyriadPro-Regular'" font-size="12.298">стр.</text><path opacity=".34" fill="#FFF" d="M1266.166 256.5l-12.694 3.715-1.639 4.952-25.333 8.333-13.001 160.667 201 84.5 28.666-19.167 26.334-165-9.667-13z"/><path d="M1314.778 291.836h-4.584l4.584 10zm0 0h5.416l-5.416 10z" fill="#FFF"/><circle fill="#FFF" cx="1314.778" cy="265.836" r="27"/><circle fill="#F7941D" cx="1314.778" cy="265.836" r="24"/><text transform="translate(1308.468 266.836)" fill="#FFF" font-family="'MyriadPro-Regular'" font-size="24.597">8</text><text transform="translate(1304.724 280.515)" fill="#FFF" font-family="'MyriadPro-Regular'" font-size="12.298">стр.</text><path opacity=".48" fill="#FFF" d="M1146.5 173.5l1.667-18 8-12.333 188-63 43.666 11.333-4.333 48.667-15-4.334-22.668 3.667-22.667 7.333-13.998 128.334-5.334 6-22.666-9 .333-10-15.334-5.667-13.666 4-.667 4.667-25.333 8.333-4.667 64.667-26 10.333 7.332-154.667-22.332-7-14 5.334-15.333-7.667z"/><path d="M1258.664 168.17h-4.584l4.584 10zm0 0h5.416l-5.416 10z" fill="#FFF"/><circle fill="#FFF" cx="1258.664" cy="142.17" r="27"/><circle fill="#F7941D" cx="1258.664" cy="142.17" r="24"/><text transform="translate(1252.355 143.17)" fill="#FFF" font-family="'MyriadPro-Regular'" font-size="24.597">8</text><text transform="translate(1248.61 156.849)" fill="#FFF" font-family="'MyriadPro-Regular'" font-size="12.298">стр.</text><path opacity=".45" fill="#FFF" d="M1111.167 174.5l-26 8.667-7.334 200.666 86 36 28-13.666 11.334-201-7.667-11.334-62.333-23.333z"/><path d="M1141.331 191.503h-4.584l4.584 10zm0 0h5.416l-5.416 10z" fill="#FFF"/><circle fill="#FFF" cx="1141.331" cy="165.503" r="27"/><circle fill="#F7941D" cx="1141.331" cy="165.503" r="24"/><text transform="translate(1135.022 166.503)" fill="#FFF" font-family="'MyriadPro-Regular'" font-size="24.597">8</text><text transform="translate(1131.278 180.182)" fill="#FFF" font-family="'MyriadPro-Regular'" font-size="12.298">стр.</text><path opacity=".46" fill="#FFF" d="M989.833 482.5l-4 184.501 16.667 9.435-2.667 140.728 38 25.333 150-95 15.667-198.246-14.834-15.418-137.5-61-23.333-7.333z"/><path d="M1144.998 545.251h-4.584l4.584 10zm0 0h5.416l-5.416 10z" fill="#FFF"/><circle fill="#FFF" cx="1144.998" cy="519.251" r="27"/><circle fill="#F7941D" cx="1144.998" cy="519.251" r="24"/><text transform="translate(1138.689 520.251)" fill="#FFF" font-family="'MyriadPro-Regular'" font-size="24.597">8</text><text transform="translate(1134.945 533.93)" fill="#FFF" font-family="'MyriadPro-Regular'" font-size="12.298">стр.</text><path opacity=".5" fill="#FFF" d="M707.833 692.834l18 213.667 41.581 79.666 71.086-22-10.667-207.333L807.75 717.5l-13.5-22-18.395-19.064z"/><path d="M772.998 709.001h-4.584l4.584 10zm0 0h5.416l-5.416 10z" fill="#FFF"/><circle fill="#FFF" cx="772.998" cy="683.001" r="27"/><circle fill="#F7941D" cx="772.998" cy="683.001" r="24"/><text transform="translate(766.69 684.001)" fill="#FFF" font-family="'MyriadPro-Regular'" font-size="24.597">8</text><text transform="translate(762.945 697.68)" fill="#FFF" font-family="'MyriadPro-Regular'" font-size="12.298">стр.</text><path opacity=".42" fill="#FFF" d="M555.834 802.501l-42.667 12.666-116.667 60-4.666-21.333-17.334-18.333-16.666-3-18-7.334H308.5l-32.666 8.667-79.167 35.734 2.184 23.31 28.983 110.289 17.333 19.334 38.667 31.333 39 10.333H356.5l49.334-11.666 43.333-12 152.667-89L584.5 825.834z"/><path d="M316.998 858.834h-4.584l4.584 10zm0 0h5.416l-5.416 10z" fill="#FFF"/><circle fill="#FFF" cx="316.998" cy="832.834" r="27"/><circle fill="#F7941D" cx="316.998" cy="832.834" r="24"/><text transform="translate(310.69 833.834)" fill="#FFF" font-family="'MyriadPro-Regular'" font-size="24.597">8</text><text transform="translate(306.945 847.513)" fill="#FFF" font-family="'MyriadPro-Regular'" font-size="12.298">стр.</text><path opacity=".42" fill="#FFF" d="M561.167 603.834l27.667 20 176.333-74.167 91 54.5 41-19.667-4.667-174.667-120-59.666-32.001-9L556.5 407.833l-17.333 22z"/><path d="M741.332 351h-4.584l4.584 10zm0 0h5.416l-5.416 10z" fill="#FFF"/><circle fill="#FFF" cx="741.332" cy="325" r="27"/><circle fill="#F7941D" cx="741.332" cy="325" r="24"/><text transform="translate(735.023 326)" fill="#FFF" font-family="'MyriadPro-Regular'" font-size="24.597">8</text><text transform="translate(731.279 339.679)" fill="#FFF" font-family="'MyriadPro-Regular'" font-size="12.298">стр.</text><path opacity=".42" fill="#FFF" d="M195.416 930.833l12.084-7.5-9.584-33.75-1.666-20.416L247.916 845l-14.583-54.167 247.5-117.916-30.417-184.584-28.333-17.5-25.833-6.666L54.166 587.5 32.5 607.917v7.916l62.916 198.75z"/><path d="M257.5 542.667h-4.584l4.584 10zm0 0h5.416l-5.416 10z" fill="#FFF"/><circle fill="#FFF" cx="257.5" cy="516.667" r="27"/><circle fill="#F7941D" cx="257.5" cy="516.667" r="24"/><text transform="translate(251.19 517.667)" fill="#FFF" font-family="'MyriadPro-Regular'" font-size="24.597">8</text><text transform="translate(247.446 531.345)" fill="#FFF" font-family="'MyriadPro-Regular'" font-size="12.298">стр.</text><text transform="rotate(-22.75 1398.495 -2082.794)" fill="#FFF" font-family="'MyriadPro-Regular'" font-size="18">ул. Доренко</text><text transform="rotate(-125.879 322.971 519.462)" fill="#FFF" font-family="'MyriadPro-Regular'" font-size="18">ул. Доренко</text></svg>