<svg id="Layer_1" xmlns="http://www.w3.org/2000/svg" viewBox="0 0 504 504"><style>.st0{fill:#59e4ea}.st1{fill:#27c7ff}.st2{fill:#00a4ff}</style><path class="st0" d="M339.8 379.3l22.7-22.7-32.4-32.3-22.7 22.7-9.2-9.2-18.5 18.5 19.6 19.6 6.7-6.7 11.4 11.4-6.7 6.7 19.6 19.6 18.5-18.5z"/><path class="st1" d="M386.7 358.1L217.1 188.5 198 207.6l169.6 169.6c5.3 5.3 13.8 5.3 19.1 0 5.2-5.3 5.2-13.8 0-19.1z"/><path class="st2" d="M211.6 202.1c11.7.7 23.6-3.4 32.6-12.3 16.6-16.6 16.6-43.6 0-60.2-14.5-14.5-36.9-16.3-53.4-5.5-2-3.9-4.6-7.6-7.8-10.9-16.6-16.6-43.6-16.6-60.2 0s-16.6 43.6 0 60.2c3.3 3.3 7 5.9 10.9 7.8-10.8 16.5-9 38.9 5.5 53.4 16.6 16.6 43.6 16.6 60.2 0 8.8-8.9 12.9-20.8 12.2-32.5zM138 128.5c8.2-8.2 21.4-8.2 29.6 0 8.2 8.2 8.2 21.4 0 29.6s-21.4 8.2-29.6 0c-8.2-8.1-8.2-21.4 0-29.6zm16.4 90.9c-8.2-8.2-8.2-21.4 0-29.6 8.2-8.2 21.4-8.2 29.6 0s8.2 21.4 0 29.6c-8.2 8.1-21.5 8.1-29.6 0zm44.9-44.9c-8.2-8.2-8.2-21.4 0-29.6 8.2-8.2 21.4-8.2 29.6 0 8.2 8.2 8.2 21.4 0 29.6-8.2 8.2-21.5 8.2-29.6 0z"/></svg>