<svg xmlns="http://www.w3.org/2000/svg" xmlns:xlink="http://www.w3.org/1999/xlink" viewBox="0 0 1840 1080"><style>.st0{opacity:.43}.st1{fill:#fff}.st2{font-family:&apos;GothamPro-Bold&apos;}.st3{font-size:11px}</style><g id="Слой_1"><image width="1840" height="1080" xlink:href="plan-corps.jpg" overflow="visible" id="plan-img"/></g><g id="corps-1" class="st0"><path class="st1" d="M761 116h-48c-1.1 0-2 .9-2 2v41.9c0 .9.5 1.6 1.4 1.9l48.6 16.7 48.6-16.7c.8-.3 1.4-1 1.4-1.9V118c0-1.1-.9-2-2-2h-48z"/><text transform="translate(730 136)" class="st2 st3">ОЧЕРЕДЬ 1</text><text transform="translate(726 153.5)" class="st2 st3">III кв. 2018 г.</text></g><g id="corps-2"><path class="st1" d="M868 262.5h-48c-1.1 0-2 .9-2 2v41.9c0 .9.5 1.6 1.4 1.9L868 325l48.6-16.7c.8-.3 1.4-1 1.4-1.9v-41.9c0-1.1-.9-2-2-2h-48z"/><text transform="translate(837 282.5)" class="st2 st3">ОЧЕРЕДЬ 1</text><text transform="translate(833 300)" class="st2 st3">III кв. 2018 г.</text></g><g id="corps-3"><path class="st1" d="M1072 355.5h-48c-1.1 0-2 .9-2 2v41.9c0 .9.5 1.6 1.4 1.9L1072 418l48.6-16.7c.8-.3 1.4-1 1.4-1.9v-41.9c0-1.1-.9-2-2-2h-48z"/><text transform="translate(1041 375.5)" class="st2 st3">ОЧЕРЕДЬ 1</text><text transform="translate(1037 393)" class="st2 st3">III кв. 2018 г.</text></g><g id="corps-4"><path class="st1" d="M1296 348.5h-48c-1.1 0-2 .9-2 2v41.9c0 .9.5 1.6 1.4 1.9L1296 411l48.6-16.7c.8-.3 1.4-1 1.4-1.9v-41.9c0-1.1-.9-2-2-2h-48z"/><text transform="translate(1265 368.5)" class="st2 st3">ОЧЕРЕДЬ 1</text><text transform="translate(1261 386)" class="st2 st3">III кв. 2018 г.</text></g><g id="corps-5"><path class="st1" d="M426 324.3h-48c-1.1 0-2 .9-2 2v41.9c0 .9.5 1.6 1.4 1.9l48.6 16.7 48.6-16.7c.8-.3 1.4-1 1.4-1.9v-41.9c0-1.1-.9-2-2-2h-48z"/><text transform="translate(395 344.25)" class="st2 st3">ОЧЕРЕДЬ 1</text><text transform="translate(391 361.75)" class="st2 st3">III кв. 2018 г.</text></g><g id="corps-6"><path class="st1" d="M628 418h-48c-1.1 0-2 .9-2 2v41.9c0 .9.5 1.6 1.4 1.9l48.6 16.7 48.6-16.7c.8-.3 1.4-1 1.4-1.9V420c0-1.1-.9-2-2-2h-48z"/><text transform="translate(597 438)" class="st2 st3">ОЧЕРЕДЬ 1</text><text transform="translate(593 455.5)" class="st2 st3">III кв. 2018 г.</text></g><g id="corps-7"><path class="st1" d="M874 555.5h-48c-1.1 0-2 .9-2 2v41.9c0 .9.5 1.6 1.4 1.9L874 618l48.6-16.7c.8-.3 1.4-1 1.4-1.9v-41.9c0-1.1-.9-2-2-2h-48z"/><text transform="translate(843 575.5)" class="st2 st3">ОЧЕРЕДЬ 1</text><text transform="translate(839 593)" class="st2 st3">III кв. 2018 г.</text></g><g id="corps-8"><path class="st1" d="M1106 580h-48c-1.1 0-2 .9-2 2v41.9c0 .9.5 1.6 1.4 1.9l48.6 16.7 48.6-16.7c.8-.3 1.4-1 1.4-1.9V582c0-1.1-.9-2-2-2h-48z"/><text transform="translate(1075 600)" class="st2 st3">ОЧЕРЕДЬ 1</text><text transform="translate(1071 617.5)" class="st2 st3">III кв. 2018 г.</text></g><g id="corps-9"><path class="st1" d="M1037 718h-48c-1.1 0-2 .9-2 2v41.9c0 .9.5 1.6 1.4 1.9l48.6 16.7 48.6-16.7c.8-.3 1.4-1 1.4-1.9V720c0-1.1-.9-2-2-2h-48z"/><text transform="translate(1006 738)" class="st2 st3">ОЧЕРЕДЬ 1</text><text transform="translate(1002 755.5)" class="st2 st3">III кв. 2018 г.</text></g></svg>