<svg id="Слой_1" xmlns="http://www.w3.org/2000/svg" viewBox="0 0 78.1 78.2"><style>.st0{fill:#ffd500}.st1{fill:#2e9130}</style><path class="st0" d="M74.3 65.9V33.3H41.4v14.1l.5.3h16.3v9.2l16.1 9zM19.8 35.3L4.2 26.5v.1C9.2 11.2 23.5 0 41.8 0c13.6 0 21.8 3.7 29.7 10.4L61 23c-5.8-4.9-11-7.7-19.7-7.7-11 0-19.8 8.7-21.5 20z"/><path class="st1" d="M12.7 42.3c-.3-.5-.2-.8.1-1.1.4-.5.5-.2.7-.8-.4-.3-.4 0-1-.1-.2-.7.2-1.3-.1-2.2-.7.1-.6.4-.5 1.2.2 1.2-.2.7-.7.8-.7.1 0 .7.2.9.6.6.5 1 .5 1v.2c-.7.3-1.5-.5-2.3-.1.1.6.7.3 1.1.8-.4.3-.3-.1-.4.4.6.4.6-.1 1.4 0 .4 1.8-3.1-.2-3.8.2 0 .4.1.2.3.5-.3.3-.3.1-.5.5.4.2.6-.1 1.2-.2-.2.6-.2.3-.6.6-.1.1-.2.1-.2.3-.1.6-.1.1.1.3.4.2 1.2-.6 1.7-.8-.2.6-.8.5-.6 1 .2.2 1.2-.3 1.6-.3-.4 1.6-3.6.8-4.4.9.1.8.9.6 1.3 1-.4.2-.6.3-.8.8.9 0 1-.3 1.7-.4-.1.4-.1.3-.4.7-.1.1-.1.2-.2.3v.4c1.1.2 1.7-1.1 2.8-1 0 .8-.4 1-1.1 1.3-.6.2-1.3.3-1.4 1l1.2-.2c-.2.4-.4.2-.3.7.8 0 .7-.5 1.4-.6-.3 1.6-3.7 1.5-5.1 1.1-.4-.1-1.5-.5-1.7-.2l.1.5c.2.1.4.1.7.2-.1.2-.3.4-.4.5l.2.6c.6 0 1.1-.7 1.8-.4-.2.5-1.1.7-1.6 1.2l.2.6c.6-.1 1.2-.7 1.8-.8-.1.7-.8.9-.8 1.7.8.1.6-.5 1.5-.5l.2.9c1.1.1.6-1 1-1.7.7.2 0 .3.7.6.6-.4-.1-.9.8-.9.7 1.3-1.1 2.7-1.9 3.1-.4.2-1.2.3-2 .5.7 1.5 1.6 2.9 2.5 4.3 0-.6-.1-1.1.7-1.1.3.6.1 1.3-.2 1.8 2 2.9 4.5 5.4 7.2 7.6 0-.1 0-.1.1-.2.4.2.6.4.6.7 1 .7 2 1.4 3.1 2.1 0-.5-.7-1.1-.4-1.7.7-.3.8.3 1.1.6.9.6.7-.3.8-.8.7.1 1.2 1 2 .6 0-.6-.5-.6-.8-1v-.3c0-.7 1.8.5 2.4 0 .8-.7-1-1.1-1.4-1.3.2-.5.2-.2.3-.6-1.1-1.2-4.3-.1-5-1.7 1 0 .9.5 2.2.3-.1-.5-.2-.5-.4-.9h.1l.2-.1c.2-.1.1 0 .3-.1.4-.1.3 0 .5-.3-.1-.2 0-.1-.3-.2-1.3-.5-5.5-.4-5.9-1.7.6-.4.3-.1.4-.1.4-.1.8.1 1.2-.1 0-1.2-3.4-1-2.5-2.8 1.1-.5.4 1.6 2 1.5l-.1-1.5c.6-.1.7.2.8.8.1.5.1.8.6 1 .4-.3.2-.8.5-1.2.3.4.3 2.2 1.4 2.1l.1-1c.8-.2.6.5 1.5.5.3-1.3-1.1-1.1-.7-2 .1-.1-.1 0 .3-.1.3-.1-.2 0 .2 0 .2 0 .3.1.5.1.5.1.5.1.9 0 .2-.5.1-.2.1-.4-.1-.9-3.7-1.5-4.3-1.7.4-.2.3 0 .4-.4-.3-.6-2.5-.8-3.3-1.2-.7-.4-2.3-1.3-2.3-2.2 1-.3.5.9 1.5.7.1-.7-.4-1 0-1.6.9.5.3 2 1.5 1.9.2-.4.2-.8.4-1.4.7.1 1.1 1.5 2.2 1.3.2-.8-1-1.1-1-2.1.7.2 1.1.8 2.1.7 0-1-.8-.4-.4-1.2.5-.3.7 0 1.2-.3-.1-1-1.9-.4-3.2-.5.2-.2.6-.2.7-.6-1.3-.6-4.6.6-5-1.1.6 0 .9.2 1.3 0 0-.8-.9-.3-1-1 .7-.3 1.2.6 2 .3.1-.9-.7-.3-.9-1.3.9.1 1.5.9 2.4.4-.1-.4-.2-.4-.7-.6-.4-.1-.5-.1-.6-.4.7-.5 1.6.4 1.9-.6-.9-.4-3.8-.1-4.4-.9.2-.3-.1 0 .2-.3.7-.5 1.5.3 2.3 0 .1-.7-.4-.6-.9-.9.4-.3.7.2 1.4-.1 0-.6-.2-.2-.7-.6.2-.6.5-.3.6-.8-.6-.3-1.3.4-1.8.5-.6.1-.2-.4-.9-.2-.4.1-.5.4-.9 0-.3-.3.1-.6.4-.7.6-.1.6.3 1 0-.1-.3-.1-.2-.4-.4.4-.3.5 0 .6-.5-.8-.4-1.1.5-1.8 0zm25.1 34.5c.1-.3.2-.5.5-.6.2.1.1.3.3.4.5-.6.7-1.3 1.4-1.8-.4 1.2-2.1 2.2-2.1 3 .4 0 .2 0 .5-.1v.4c1.1.1 2.3.1 3.5.1 1.3 0 2.5 0 3.7-.1 2.1-.2 4.2-.4 6.2-.8-.1-.1-.3 0-.5 0-.9 0-1.8 0-2.7-.1.1-.2.2-.2.2-.5-.3-.3-.9-.4-1.4-.6-1.3-.5-2.5-1.3-3-2.8.8.4.8 1.4 1.4 1.6.1-.3 0-.4.2-.5.2.3.6.8 1 .8h.2c.2-1-1.5-.8-.8-1.8 1.3-.3.7 1.2 1.4 1.7.3-.2.1-.3.5-.6.2.2.1.1.2.3.1.3.1.8.6.7.2-.4 0-.3 0-.7.5 0 .6.4.9.1.6-.6-1.6-1-1.7-2 .5.1.7.3 1 .5s.7.4 1.1.2c.2-.6-.5-.3-.7-.8.5-.2 1.7 0 1.4-.7-.2-.3-.9 0-1.3-.1-1.9-.3-5.8-1.2-5.4-3.6.7.1.5 1.6 1.4 1.6.1-.7-.5-1-.5-1.8 1 .4.8 1.8 1.5 2.2.2-.2.2-.6.3-.7.3.6.3 1.4 1 1.4l-.1-1c.4.1 1.1.6 1.5.3.4-.4-.2-.6-.6-.7-.4-.1-.7-.3-1-.5-.5-.4-1.3-.9-1-2 .9.1.5 1.6 1.7 1.5.1-.6-.3-.8-.3-1.4.5.3.4.9 1.3.7 0-.5-.3-.7-.4-1.2.5-.1.8.3 1.5.1.2-.8-.5-.6-1.1-.7-.5 0-1-.1-1.3-.4.2-.1.5 0 .7-.2-.4-.9-2.1-.4-3-.8-.7-.3-1.4-1.2-1.5-2.1.9.1.6 1.7 1.6 1.6.1-.5-.1-.6 0-1.1.6.2.7 1.6 1.4 1.2.1-.1.1-.3 0-.3 0-.3-.2-.4-.3-.7.4.2 1.1.9 1.6.5-.1-.3-.3-.4-.5-.6.4-.3 1.3-.2 1.5-.7-.4-.3-1 0-1.4.1-1.3.2-.9-.1-.9-.6-.7-.3-1.2 0-1.9-.3-.5-.2-1.1-.5-1.1-1.1.4 0 .8.4 1.2.1.3-.9-1.6-.5-1.5-1.5.8-.2 2.6 1.3 2.4.5 0-.1 0 0-.1-.1-.2-.2-.5-.3-.6-.6.4-.1 1.1-.1 1.2-.6-.4-.5-1.1.1-1.9 0-.5-.1-1.5-.2-1.6-.8.6-.4 1 .5 1.7.3 0-.5-.2-.1-.2-.6.6 0 .9.4 1.3.2.3-.5-.3-.4-.5-.8.2-.6.9-.1.9-.9-.7 0-1.4.4-1.9.6-.5.2-1.8.3-1.4-.6.3-.4.7 0 1.3-.1 0-.5-.2-.3-.3-.6.4-.4.8-.1.8-.8-.8-.1-1.4.6-1.9.3 0-.7 1.1-.5.7-1.1-.5-.2-.2.4-.9.3-.2-.7.5-2.3-.2-3-.6 0-.9.5-.7 1.2.1.6.4.8.2 1.5-.7.1-.6-.4-1.1-.1 0 .4.3.4.6.6.3.2.5.3.3.7-.7.6-1.6-.8-2.4-.4-.1.6.6.6 1.2.7 0 .5-.3.3-.4.8.5 0 .7-.3 1.2-.3l.3.1c.2.6-.4.5-.6.8-.5.5.3.5.6.6-.3.7-1.5 0-1.9-.2-.3-.1-1.5-.9-1.7-.7-.3.3.5.8.7 1h-.2c-.3.1-.4.1-.4.4.3.1.3 0 .6.1h.1c-.2.2-.2.2-.5.3-.2.1-.3.2-.3.4.3.1.7-.1 1-.2.3-.2.4-.4.9-.4-.1.6-.3.2-.3.7.7.1 1-.3 1.7-.4 0 1.7-2.3.7-3.2 1.1 0 .4.4.4.7.5l.2.1c-.2.3-.5.4-.5.8.4 0 .5-.1.8-.3.9-.6 1 .1.5.5-.2.2-.5.2-.7.4l.2.2c.2.2 0-.1.2.1-.2.2-.3.3-.3.6 1.3 0 1-1.3 1.7-1.5.8-.2.1 1.1-.3 1.4-.4.3-.9.6-1.4.7-2.1.7-2.5.2-3.8.5 0 .7.5.4 1 .8 0 .8-.7.3-.9 1.1 1.1 0 1.2-.8 1.9-.7 0 .9-1.3 1.1-1.4 1.8.6 0 1-.5 1.3-.8l.1.4c.1.5.6.3.7-.1.1-.7-.1-1 .2-1.6 1 .1.1.9.4 1.7.5.1 1-.9 1.2-.7.2.5-.6.6-.7 1.2 1 .1 1-1 1.6-1.1-.1.8-.4 1.2-1 1.5-2.7 1.6-5.7 1-5.6 1.8.2.5.4.2.9.4-.2.5-.7.4-.5.8.1.1-.2.1.2.1.2 0 .4-.1.6-.3.3-.2.5-.4.8-.2-.3.6-1.8.9-1.6 1.7.6.2.7-.2 1.1-.5.1.1 0 0 .1.2v.2c.1.2 0 .1.1.3.9-.1 0-1.5.8-1.6.5-.1.2.6.5.9.5-.1.4-.5.4-.9s0-1.1.5-.7c.2.3 0 .5.1 1 .7.1 1.1-1.4 1.8-1.6-.2.6-.8.4-.8 1.1.4.2.2-.1.4.1-1 1.1-3.2 2-4.7 2.6-.5.2-1.4.4-1.4 1 .6.1.6-.1 1-.1 0 .6-.6.4-.6 1.2 1 0 1.1-.9 1.7-1.1-.1.5-.4.9-.2 1.3.5 0 .5-.4.7-.8.4-.9.7-.8.7-.3 0 .3-.2.4-.2.8.5-.1 1.1-1.5 1.5-1 .5.8-1.8 2.5-2.6 2.7l-.1-.1c-.5.1-1.6.3-1.6.8.3.2.1.1.4.1h.4c-.1.4-.3.5-.8.6-1.2.3-1.9 0-2.1.2 1.2.3 2.5.5 3.8.6.1-.1.1-.2.2-.4h.3v.4c.4 0 .8.1 1.2.1-.1-.6-.1-1.1 0-1.3z"/><path class="st1" d="M39.8 78.1c-.1-.3-.5-.2-.6-.7.5-.2 1-.1 1.1-.6-.5-.4-2.6-.1-3.6-.3-.8-.1-2.6-.4-2.7-1.1.6-.1 1.2.5 1.5.2.4-.4-.4-.3.1-.5.2-.1.5 0 .8-.2 0-.5-.8-.4-1.2-.5-1.3-.1-2.8-.6-3-2 .5.2.8 1.1 1.4.9.2-.3.1-.5 0-1 .8.3.5 1.4 1.4 1.3.1-.4 0-.5-.1-.9h.9c.1-1.1-2-.3-1.6-1.5.7-.1 1 .3 1.6.1.1-.6-.3-.1-.4-.7.3-.3.7-.2.8-.7-.4.1-2 .1-2.3.1-.9.1-1.2.2-1.8-.3.4-.3.5-.1.6-.6-.6-.2-3-.1-3-1.9.9.1 1.4 1.6 2.1 1.4 0-.3 0-.2-.1-.5l1 .2c-.1-.4-.3-.6-.6-.8-.7-.5-.5-.2-.3-.6-.2-.1-.6-.3-.6-.8 1-.2.6.8 1.3 1 .1-.3 0-.4-.1-.7.3.1.5.6 1 .5.1-.6-.6-.4-.8-1.1.4.1.7.4 1.1.4 1 .1.1-.6 0-.7.3-.2.4-.1.5-.5-.3-.1-2-.1-2.5-.2l-1.9-.7c.3-.1.2.1.4-.1-.2-.2-.3-.2-.4-.4.6-.3 1.5.9 2.2.5 0-.3-.2-.2-.4-.5.3-.3.8-.2.8-.6-.3-.1-1.7.2-2.8-.3-.1-.1-.3-.1-.4-.2-.3-.3-.1-.4-.1-.4.7-.2.5.4 1.1.3 0-.3-.1-.4-.2-.7.6.2 1 .8 1.6.8.1-.5-.2-.4-.3-.9.5-.1.8.1 1-.4-.1-.2-.1-.2-.3-.3-.4-.1-.9.1-1.3-.1.1-.2-.1-.1.3-.2s.8 0 .9-.6h-.7c.2-.4.5-.3.6-.7-.5-.2-1.3.7-1.9.9-.9.4-1.4-.3-1.6-1 .5.3.8.8 1.2.7l-.2-.7c.6-.1.7.5 1.4.2-.1-.3-.2-.1-.3-.4.4-.2.6 0 .7-.4-.8-.5-2.4.5-2.8-.7.7 0 .8.4 1.4.2.1-.4 0-.2-.2-.5.2-.2.4-.2.7-.3.3-.2.4-.2.4-.6-.7 0-1.1.5-1.5.2.2-.3.1-.1.3-.3.2-.2.2-.1.2-.4-.6 0-.8.5-1.3.3v-.2c0-.4.6-.4.5-1.1-.4 0-.3.2-.7 0-.3-.8.2-1.7 0-2.4-.1-.3-.3-.3-.5-.1-.2.3 0 1.4-.1 1.8 0 1-.4.6-.9.8-.1.4 0 .4.3.5.3.2.4.1.4.5-.6.2-1.4-.4-1.9-.1 0 .5.4.5.7.7-.1.3-.2.1-.4.5.3.2.9.1 1.3.3 0 1.2-1.7.1-2.4.4.1.5.6.5.9.8-.1.3-.2.2-.2.6.6.1.3-.3.9-.4-.1.2-.1.4-.1.7.4-.1.3-.4.6-.3.1.1.2-.1.1.3-.1.3-.5.4-.8.4-1 0-2.6-1.7-3.5-1.2 0 .4.2.4.4.7-.3.3-.5.1-.5.6.4.2.6-.1 1-.2h.4c-.1.2 0 .1-.2.2-.3.2-.7.1-.8.5.3.2.5.1 1 .1-.1.5-.8.7-1.1 1-.3.3-.1.3-.1.4.5.3.7-.4 1.1-.5 0 .4 0 .5.2.7.4-.1.4-.3.5-.7s0-.6.4-.6c.3.4 0 .7-.3 1.1-.2.3-.5.6-.5 1 .7.1.6-.6 1.2-.7l.1.6c.9-.1.4-1.3 1.1-1.2.3 1.1-.8 1.3-1.6 1.7-1.9.8-1.5.2-2.9.5 0 .4 0 0 .1.2s0-.2.1.2c-.6.2-.9-.1-1.5.1-.2.8 1.2.7 1.6.8-.3.2-.7.4-.7.8.7.1 1.4-.8 2.3-.9 0 1.1-1.9 1.1-1.6 2 .6.1.6-.3 1.1-.5l.1.8c.7 0 .5-.6.8-1.1.3.2-.1.1.4.2.2-.3.2-.7.5-.8.2.3 0 .3.2.6.1.2.2.1.2.4-.6.5-1.2.2-1.5.6l.1.1.2.1c-.1.4-.2.1-.3.5.6 0 .8-.2 1.3-.2-.1.5-.9.6-1.4.8-.6.1-1.1.3-1.7.5-.9.3-1.8.4-2.8.6-.4.1-.5.1-.6.5.4.1.9 0 1.3 0-.1.4-.6.4-.7.9.6.4 1.1-.6 1.8-.7-.1.4-.6.8-.4 1.2.6 0 .5-.7 1-1 0 .5-.4.9-.1 1.4.5 0 .4-.4.7-.8.3.2.3.6.9.4.1-.5-.3-.8 0-1.2.2.1.3.4.5.5.3.1.2-.2.7-.1.1.5-.2.5-.2.9-.3.2-.3.3-.6.4l-1.3.6c-.1 0-.3 0-.4.1l-.3.2.4.2.4.1v.2c5 2.5 10.9 4 17.3 4.3zm17.9-2.5v-.4c.3 0 .5.1.5.2.7-.2 1.4-.5 2.1-.8-.4-.2-.8-.5-1-.8.2.2.3.2.5.2v-.1c.1-.8-2.1-1.3-2.1-2.2.7 0 .6.7 1.3.5 0-.5-.4-.7-.4-1.3.8.1.8 1.2 1.6.8 0-.6-.4-.3-.4-1l1.1-.1c0-.8-.8-.4-2.2-1.1-.7-.3-2-.7-1.4-1.5.8-.1.5 1 1.3.9.1-.4-.2-1-.2-1.5.7.3 1.1 2.2 1.8 1.5.4-.5-.6-.7-.7-1.3.5.2 1.5.9 2.1.3 0-.4-.4-.4-.8-.5-.3-.1-.7-.2-.9-.4.2-.2.3-.1.4-.4-.5-.2-1-.1-1.9-.5-.5-.2-1.3-.4-1.4-1l1.3.2c0-1-1.9-.6-1.9-1.8.9-.2 1.9 1.2 2.4.8.1-.1 0-.3-.2-.5s-.2-.2-.4-.5l.9-.1c.1-1.1-2.1-.4-2.5-1.4.3-.2 1-.1 1.2-.3-.1-.3.1-.1-.3-.3-.4-.2-.8-.2-1-.6.2-.4.2-.1.4-.5-.4-.2-.5-.1-.9-.3 0-.4.1-.4.2-.6-.4-.6-.2-.6-.2-1.4.1-.7.1-1.1-.6-1-.3.4-.2.7-.2 1.3.2 1.3-.2.6-.5 1.2.3.5.5.1.5.6-.4.3-.6.1-1.1.3-.2.5.2.3.4.7-.4.1-1.8.2-1.6.8s1.4 0 1.8.1c0 .5-.9.7-1.4.9-.3.1-.6.2-.9.4-.4.2-.6.2-.6.6.5.3.9-.1 1.3.1-.2.3-.6.4-.7.8 1.1 0 1.2-.8 2.1-.8-.2.5-.7.8-1.2 1-.6.2-1.3.1-1.3.8.4.1.8 0 1.2 0-.2.4-.6.3-.5.8.8.2.5-.5 1.4-.3-.1 1.2-2.4 1.5-3.4 1.8-.5.1-.8.3-.9.8 1.1 0 .7-.3.8.7.9.2.4-.7 1.3-.7 0 .6-.2.5-.2 1.1.5-.1.6-.3.8-.7.3-.4.4-.6.8-.6.5.8-.4 1.4-.8 1.7-.7.5-1.7.5-1.8 1.1l.7.1c-.1.4-.3.4-.7.5-.5.1-.6.1-.7.5.6.2.8-.1 1.5-.2-.1.6-1 1-1.7 1.2-.6.2-2 .2-1.7 1 .6.2.8-.2 1.4 0-.1.6-.4.4-.5.9 1 .5 1-1 1.9-1.2 0 .5-.2.8-.1 1.3.8.1.8-1.8 1.7-1.9.4 1-.8 1.3-1 2-.2 1.1-.2.8-1.3 1.7 2.9-.2 5.2-.9 7.5-1.6z"/></svg>