<svg xmlns="http://www.w3.org/2000/svg" class="hide"><symbol id="arrow" viewBox="0 0 330 330"><path id="XMLID_91_" d="M250.606 154.389l-150-149.996c-5.857-5.858-15.355-5.858-21.213.001-5.857 5.858-5.857 15.355.001 21.213l139.393 139.39L79.393 304.394c-5.857 5.858-5.857 15.355.001 21.213C82.322 328.536 86.161 330 90 330s7.678-1.464 10.607-4.394l149.999-150.004a14.996 14.996 0 0 0 0-21.213z"/></symbol><symbol id="book" viewBox="0 0 90.001 90.001"><path d="M34.002 56.353l-20.004-8.002v6.77l20.004 8.002v-6.77zm0-20.77l-20.004-8.001v6.77l20.004 8.001v-6.77zM87.803.86a5 5 0 0 0-4.66-.502L45 15.616 6.855.358A5 5 0 0 0 0 5.001v64a5.001 5.001 0 0 0 3.141 4.643l39.916 15.965s.818.264.973.295c.32.062.644.097.97.097.324 0 .648-.035.971-.098.152-.031.975-.297.975-.297l39.912-15.963A4.998 4.998 0 0 0 90 69.001v-64c0-1.66-.824-3.211-2.197-4.141zM40 79.771L8 66.972v-56.04l32 12.802v56.037zm42-12.799L50 79.771V23.733l32-12.802v56.041zm-5.998-18.621l-20.004 8.002v6.77l20.004-8.002v-6.77zm0-20.769l-20.004 8.001v6.77l20.004-8.001v-6.77z"/></symbol><symbol id="calculator" viewBox="0 0 485 485"><path d="M0 0v485h485V0H0zm455 227.5H257.5V30H455v197.5zM227.5 30v197.5H30V30h197.5zM30 257.5h197.5V455H30V257.5zM257.5 455V257.5H455V455H257.5z"/><path d="M65 376.25h127.5v30H65zm0-70h127.5v30H65zM300.565 94.278l34.472 34.472-32.73 32.73 21.213 21.213 32.73-32.73 34.472 34.472 21.213-21.213-34.472-34.472 32.73-32.73-21.213-21.213-32.73 32.73-34.472-34.472zm-186.815 95.76h30V143.75h48.75v-30h-48.75V67.462h-30v46.288H65v30h48.75zM292.5 341.25H420v30H292.5z"/></symbol><symbol id="camera" viewBox="0 0 239.303 239.303"><path d="M230.303 65.445h-42.666l-7.242-23.086a9 9 0 0 0-8.587-6.306H67.495a9 9 0 0 0-8.587 6.306l-7.242 23.086h-14.84v-4.831c0-4.971-4.029-9-9-9s-9 4.029-9 9v4.831H9a9 9 0 0 0-9 9v119.804a9 9 0 0 0 9 9h221.303a9 9 0 0 0 9-9V74.445a9 9 0 0 0-9-9zm-9 119.804H18V83.445h40.274a9 9 0 0 0 8.587-6.306l7.242-23.086h91.095l7.242 23.086a9 9 0 0 0 8.587 6.306h40.274v101.804z"/><path d="M119.651 81.006c-26.889 0-48.765 21.876-48.765 48.766s21.876 48.766 48.765 48.766 48.765-21.876 48.765-48.766-21.875-48.766-48.765-48.766zm0 79.531c-16.964 0-30.765-13.802-30.765-30.766s13.801-30.766 30.765-30.766 30.765 13.802 30.765 30.766-13.801 30.766-30.765 30.766z"/></symbol><symbol id="car" viewBox="0 0 149.504 143.593"><g id="Layer_2"><path d="M22.755 129.76a8.054 8.054 0 0 1-5.708-2.352 8.058 8.058 0 0 1-2.401-5.727c0-.573.002-13.76.166-17.616.215-5.027 2.221-7.567 8.527-14.839.17-.196 17.24-19.251 23.52-20.151 3.938-.582 38.749-5.625 47.803-3.594 5.595 1.256 10.163 7.844 15.001 14.818 3.664 5.283 7.816 11.27 10.996 12.134 1.679.457 3.714.889 5.869 1.346 9.34 1.982 20.965 4.449 22.123 12.897 1.238 9.092 1.956 18.214-3.916 21.178-3.145 1.59-8.23 1.665-13.257 1.51a3 3 0 0 1-2.906-3.091c.052-1.656 1.39-2.965 3.092-2.906 2.229.067 8.15.251 10.367-.869 1.161-.586 2.221-3.666.675-15.009-.585-4.267-10.718-6.417-17.424-7.84-2.239-.476-4.355-.924-6.197-1.426-5.289-1.436-9.691-7.784-14.353-14.504-3.784-5.456-8.072-11.64-11.385-12.383-6.746-1.517-35.213 2.139-45.611 3.675-.045.007-.09.012-.135.017-2.468.91-12.938 10.295-19.729 18.13-6.375 7.35-6.953 8.51-7.066 11.164-.158 3.728-.16 17.21-.16 17.346.003.552.225 1.083.626 1.48.398.395.926.612 1.486.612h.01l11.061-.04h.011a3 3 0 0 1 .011 6l-11.058.04h-.038zm42.108-.153a3 3 0 0 1-.011-6l35.229-.131h.011a3 3 0 0 1 .011 6l-35.229.131h-.011z"/><path d="M115.477 143.593c-10.208 0-18.513-8.305-18.513-18.512s8.305-18.511 18.513-18.511 18.513 8.304 18.513 18.511c-.001 10.207-8.305 18.512-18.513 18.512zm0-31.024c-6.899 0-12.513 5.612-12.513 12.511 0 6.899 5.613 12.512 12.513 12.512s12.513-5.613 12.513-12.512c-.001-6.898-5.614-12.511-12.513-12.511zm-65.969 31.024c-10.206 0-18.51-8.305-18.51-18.512s8.304-18.511 18.51-18.511c10.207 0 18.511 8.304 18.511 18.511 0 10.207-8.304 18.512-18.511 18.512zm0-31.024c-6.897 0-12.51 5.612-12.51 12.511 0 6.899 5.612 12.512 12.51 12.512s12.511-5.613 12.511-12.512c0-6.898-5.613-12.511-12.511-12.511zm78.646-21.745a3 3 0 0 1-3-3V64.881a3 3 0 0 1 3-3h14.416c.478-.578.732-1.222.732-1.872.001-.908-.498-1.805-1.404-2.525L78.91 7.369c-2.309-1.836-6.208-1.837-8.511-.001L7.405 57.484C6.499 58.205 6 59.102 6 60.009c0 .65.256 1.294.734 1.872H21.15a3 3 0 0 1 3 3v17.475a3 3 0 1 1-6 0V67.881H5.537c-.679 0-1.337-.23-1.868-.652C1.338 65.374 0 62.742 0 60.009c0-2.733 1.337-5.365 3.669-7.221L66.662 2.674C71.142-.892 78.16-.89 82.646 2.673l62.99 50.116c2.331 1.856 3.668 4.488 3.667 7.221 0 2.732-1.336 5.363-3.667 7.219a2.995 2.995 0 0 1-1.868.653h-12.613v19.943a3 3 0 0 1-3.001 2.999z"/></g></symbol><symbol id="certificate" viewBox="0 0 297 297"><path d="M148.5 69.022H44.969c-5.775 0-10.458 4.683-10.458 10.458 0 5.774 4.683 10.457 10.458 10.457H148.5c5.775 0 10.458-4.683 10.458-10.457 0-5.776-4.683-10.458-10.458-10.458zm0 34.51H44.969c-5.775 0-10.458 4.682-10.458 10.457s4.683 10.458 10.458 10.458H148.5c5.775 0 10.458-4.683 10.458-10.458s-4.683-10.457-10.458-10.457zm0 34.509H44.969c-5.775 0-10.458 4.683-10.458 10.458s4.683 10.458 10.458 10.458H148.5c5.775 0 10.458-4.683 10.458-10.458s-4.683-10.458-10.458-10.458z"/><path d="M270.855 17.255H26.144C11.728 17.255 0 28.983 0 43.399v175.69c0 14.416 11.728 26.145 26.144 26.145H181.18v24.054a10.459 10.459 0 0 0 16.257 8.702l20.083-13.388 20.082 13.388a10.449 10.449 0 0 0 10.736.519 10.458 10.458 0 0 0 5.522-9.22v-24.054h16.994c14.416 0 26.145-11.729 26.145-26.145V43.399c.001-14.416-11.728-26.144-26.144-26.144zM217.521 193.59c-15.281 0-27.714-12.487-27.714-27.835 0-15.347 12.433-27.834 27.714-27.834 15.281 0 27.713 12.487 27.713 27.834 0 15.348-12.431 27.835-27.713 27.835zm5.801 49.739a10.448 10.448 0 0 0-5.801-1.756c-2.022 0-4.045.585-5.801 1.756l-9.625 6.416v-37.769a48.279 48.279 0 0 0 15.426 2.528c5.391 0 10.575-.896 15.425-2.528v37.769l-9.624-6.416zm52.763-24.241c0 2.834-2.396 5.229-5.23 5.229h-16.994V198.1c7.637-8.612 12.288-19.94 12.288-32.345 0-26.88-21.814-48.75-48.628-48.75s-48.629 21.87-48.629 48.75c0 12.404 4.651 23.732 12.288 32.345v26.217H26.144c-2.834 0-5.229-2.395-5.229-5.229V43.399c0-2.834 2.395-5.229 5.229-5.229h244.711c2.834 0 5.23 2.395 5.23 5.229v175.689z"/></symbol><symbol id="clock" viewBox="0 0 329.488 329.488"><path d="M230.687 185.918a11.477 11.477 0 0 0-8.175-3.389l-46.531.005v-38.661a11.52 11.52 0 0 0-3.394-8.18 11.491 11.491 0 0 0-8.175-3.389 11.485 11.485 0 0 0-8.169 3.389 11.49 11.49 0 0 0-3.389 8.169v50.224c.005 6.375 5.194 11.563 11.563 11.563l58.095-.005c3.084 0 5.988-1.202 8.175-3.389a11.527 11.527 0 0 0 3.394-8.164c-.016-3.093-1.218-5.997-3.394-8.173zM117.739 49.648a11.515 11.515 0 0 0 3.389-8.18 11.6 11.6 0 0 0-3.389-8.164C104.718 20.266 87.4 13.092 68.973 13.092s-35.746 7.174-48.767 20.206C7.174 46.314 0 63.637 0 82.065c0 18.422 7.174 35.746 20.212 48.778a11.532 11.532 0 0 0 8.159 3.372c3.073 0 5.978-1.202 8.175-3.389l81.193-81.178zM23.127 82.059c0-12.243 4.765-23.752 13.429-32.411 8.659-8.67 20.168-13.44 32.417-13.44 8.327 0 16.241 2.159 23.219 6.282l-62.789 62.778c-4.122-6.979-6.276-14.887-6.276-23.209zm286.154-48.761c-13.016-13.037-30.334-20.212-48.761-20.212-18.422 0-35.746 7.174-48.772 20.201a11.496 11.496 0 0 0-3.389 8.18c0 3.1 1.207 6.005 3.389 8.18l81.194 81.189a11.508 11.508 0 0 0 8.169 3.378c3.079 0 5.978-1.202 8.169-3.389 13.032-13.032 20.206-30.345 20.206-48.767-.009-18.432-7.189-35.755-20.205-48.76zm-9.202 71.97l-62.778-62.772c6.978-4.128 14.892-6.288 23.225-6.288 12.243 0 23.752 4.77 32.411 13.44 8.659 8.659 13.429 20.168 13.429 32.411-.005 8.316-2.159 16.23-6.287 23.209z"/><path d="M260.618 270.8c17.96-21.609 28.784-49.343 28.784-79.568 0-68.733-55.924-124.658-124.658-124.658-68.739 0-124.658 55.924-124.658 124.658 0 28.093 9.453 53.961 25.194 74.831l-32.558 32.558a10.403 10.403 0 0 0 0 14.729c2.034 2.034 4.699 3.051 7.364 3.051s5.33-1.017 7.364-3.051l31.715-31.715c22.355 21.174 52.438 34.255 85.578 34.255 31.03 0 59.378-11.466 81.216-30.29l27.75 27.75c2.04 2.034 4.699 3.051 7.364 3.051s5.336-1.017 7.364-3.051c4.074-4.074 4.074-10.661 0-14.729L260.618 270.8zM63.207 191.232c0-55.99 45.552-101.536 101.536-101.536s101.531 45.547 101.531 101.536c0 26.097-9.981 49.86-26.227 67.863a10.308 10.308 0 0 0-3.557 2.312c-1.093 1.093-1.838 2.377-2.344 3.731-18.172 17.079-42.555 27.625-69.402 27.625-55.99 0-101.537-45.547-101.537-101.531z"/></symbol><symbol id="cotedge" viewBox="0 0 129.334 129"><g id="Layer_2"><path d="M119.334 129H10c-5.514 0-10-4.486-10-10V10C0 4.486 4.486 0 10 0h76.832a3 3 0 1 1 0 6H10c-2.206 0-4 1.794-4 4v109c0 2.206 1.794 4 4 4h109.334c2.206 0 4-1.794 4-4V45a3 3 0 1 1 6 0v74c0 5.514-4.486 10-10 10z"/><path d="M126.303 19a3 3 0 0 1-3-3v-6c0-2.206-1.794-4-4-4H87.971a3 3 0 1 1 0-6h31.332c5.514 0 10 4.486 10 10v6a3 3 0 0 1-3 3zM52 47.264H3.666a3 3 0 1 1 0-6H52a3 3 0 1 1 0 6zm1.334-19.333a3 3 0 0 1-3-3v-19a3 3 0 1 1 6 0v19a3 3 0 0 1-3 3zM57 126.598a3 3 0 0 1-3-3V71.264c0-5.514 4.486-10 10-10h18.668a3 3 0 1 1 0 6H64c-2.206 0-4 1.794-4 4v52.334a3 3 0 0 1-3 3zm68-58.334h-15a3 3 0 1 1 0-6h15a3 3 0 1 1 0 6z"/><path d="M53 103.598H24.334a3 3 0 1 1 0-6H53a3 3 0 1 1 0 6z"/></g></symbol><symbol id="credit-card" viewBox="0 0 612 612"><path d="M601.518 89.222c-6.962-7.109-15.566-10.776-25.748-10.776H36.224c-10.176 0-18.786 3.667-25.749 10.776C3.667 96.185 0 104.795 0 114.677v382.648c0 9.881 3.513 18.639 10.476 25.748 6.815 6.961 15.573 10.48 25.749 10.48H575.77c10.182 0 18.939-3.52 25.748-10.48C608.48 515.964 612 507.206 612 497.325V114.677c0-9.882-3.666-18.492-10.482-25.455zm-22.752 408.103c0 2.094-.9 2.994-2.996 2.994H36.224c-1.495 0-3.29-1.795-3.29-2.994V263.181h545.831v234.144zm0-318.875H32.935v-63.773c0-1.201 1.795-2.996 3.29-2.996H575.77c2.096 0 2.996.901 2.996 2.996v63.773z"/><path d="M439.535 325.761h71.86v72.16h-71.86zm-322.464 32.933h257.496c9.281 0 16.467-7.186 16.467-16.467s-7.186-16.467-16.467-16.467H117.071c-9.287 0-16.473 7.186-16.473 16.467s7.186 16.467 16.473 16.467zm0 74.256H321.87c9.281 0 16.467-7.186 16.467-16.467s-7.186-16.467-16.467-16.467H117.071c-9.287 0-16.473 7.186-16.473 16.467s7.186 16.467 16.473 16.467z"/></symbol><symbol id="document" viewBox="0 0 486.392 486.392"><path d="M425.593 60.799h-30.399v-30.4C395.193 13.619 381.574 0 364.794 0H60.799c-16.781 0-30.4 13.619-30.4 30.399v364.794c0 16.781 13.619 30.399 30.399 30.399h30.399v30.399c0 16.781 13.619 30.399 30.399 30.399h303.995c16.781 0 30.399-13.619 30.399-30.399V91.198c.002-16.78-13.617-30.399-30.397-30.399zM60.799 395.193V30.399h303.995v364.794H60.799zm364.794 60.799H121.598v-30.399h243.196c16.781 0 30.399-13.619 30.399-30.399V91.198h30.399v364.794z"/><path d="M319.194 91.198H167.197c-8.39 0-15.2 6.809-15.2 15.2s6.809 15.2 15.2 15.2h151.997c8.36 0 15.2-6.809 15.2-15.2s-6.84-15.2-15.2-15.2zm0 91.199H106.398c-8.39 0-15.2 6.809-15.2 15.2s6.809 15.2 15.2 15.2h212.796c8.36 0 15.2-6.809 15.2-15.2s-6.84-15.2-15.2-15.2zm0 60.799H106.398c-8.39 0-15.2 6.809-15.2 15.2 0 8.36 6.809 15.2 15.2 15.2h212.796c8.36 0 15.2-6.84 15.2-15.2 0-8.391-6.84-15.2-15.2-15.2zm0 60.799H106.398c-8.39 0-15.2 6.84-15.2 15.2s6.809 15.2 15.2 15.2h212.796c8.36 0 15.2-6.84 15.2-15.2s-6.84-15.2-15.2-15.2z"/></symbol><symbol id="facebook" viewBox="0 0 60.734 60.733"><path d="M57.378.001H3.352A3.352 3.352 0 0 0 0 3.353v54.026a3.353 3.353 0 0 0 3.352 3.354h29.086V37.214h-7.914v-9.167h7.914v-6.76c0-7.843 4.789-12.116 11.787-12.116 3.355 0 6.232.251 7.071.36v8.198l-4.854.002c-3.805 0-4.539 1.809-4.539 4.462v5.851h9.078l-1.187 9.166h-7.892v23.52h15.475a3.355 3.355 0 0 0 3.355-3.351V3.351a3.352 3.352 0 0 0-3.354-3.35z"/></symbol><symbol id="graf" viewBox="0 0 129 129"><path d="M118.4 114.4H14.6V10.6c0-2.3-1.8-4.1-4.1-4.1s-4.1 1.8-4.1 4.1v107.9c0 2.3 1.8 4.1 4.1 4.1h107.9c2.3 0 4.1-1.8 4.1-4.1s-1.8-4.1-4.1-4.1z"/><path d="M54.3 98.6v-59c0-2.3-1.8-4.1-4.1-4.1s-4.1 1.8-4.1 4.1v59c0 2.3 1.8 4.1 4.1 4.1s4.1-1.8 4.1-4.1zm-19.8 0v-59c0-2.3-1.8-4.1-4.1-4.1s-4.1 1.8-4.1 4.1v59c0 2.3 1.8 4.1 4.1 4.1s4.1-1.8 4.1-4.1zm59.4 0v-59c0-2.3-1.8-4.1-4.1-4.1s-4.1 1.8-4.1 4.1v59c0 2.3 1.8 4.1 4.1 4.1s4.1-1.8 4.1-4.1zm19.8 0V69.1c0-2.3-1.8-4.1-4.1-4.1s-4.1 1.8-4.1 4.1v29.5c0 2.3 1.8 4.1 4.1 4.1s4.1-1.8 4.1-4.1zm-39.6 0V69.1c0-2.3-1.8-4.1-4.1-4.1s-4.1 1.8-4.1 4.1v29.5c0 2.3 1.8 4.1 4.1 4.1s4.1-1.8 4.1-4.1z"/></symbol><symbol id="home-check" viewBox="0 0 169.156 146.611"><g id="Layer_2"><path d="M67.657 130.033H27.015c-5.68 0-10.301-4.621-10.301-10.301V62.99H5.335a3 3 0 0 1-1.869-.653C1.263 60.582 0 58.091 0 55.501c0-2.588 1.264-5.079 3.467-6.833l15.2-12.095V4.454A4.173 4.173 0 0 1 22.835.285h17.883a4.172 4.172 0 0 1 4.167 4.169v11.261L61.481 2.514c4.209-3.352 10.805-3.351 15.015.001l39.86 31.71a3 3 0 1 1-3.735 4.695L72.759 7.209c-2.011-1.602-5.534-1.6-7.542 0L43.754 24.283c-.9.717-2.133.855-3.171.354a2.998 2.998 0 0 1-1.697-2.702V6.285H24.667V38.02c0 .914-.417 1.778-1.132 2.348L7.204 53.363C6.428 53.98 6 54.74 6 55.502c0 .511.192 1.021.553 1.488h13.161a3 3 0 0 1 3 3v59.742a4.306 4.306 0 0 0 4.301 4.301h40.642a3 3 0 1 1 0 6z"/><path d="M55.268 99.214c-5.943 0-10.777-4.038-10.777-9v-18.5c0-4.962 4.834-9 10.777-9h9.725a3 3 0 1 1 0 6h-9.725c-2.815 0-4.777 1.581-4.777 3v18.5c0 1.419 1.962 3 4.777 3a3 3 0 1 1 0 6zm61.721 47.397c-28.764 0-52.166-23.402-52.166-52.167s23.401-52.167 52.166-52.167c28.765 0 52.167 23.402 52.167 52.167s-23.402 52.167-52.167 52.167zm0-98.333c-25.456 0-46.166 20.71-46.166 46.167s20.71 46.167 46.166 46.167c25.457 0 46.167-20.71 46.167-46.167s-20.71-46.167-46.167-46.167z"/><path d="M116.99 133.155c-21.345 0-38.71-17.365-38.71-38.71s17.365-38.71 38.71-38.71S155.7 73.1 155.7 94.445s-17.365 38.71-38.71 38.71zm0-71.421c-18.037 0-32.71 14.674-32.71 32.71s14.674 32.71 32.71 32.71 32.71-14.674 32.71-32.71-14.674-32.71-32.71-32.71z"/><path d="M116.829 103.503c-.438 0-.883-.096-1.304-.3l-19.163-9.265a3 3 0 1 1 2.611-5.401l19.163 9.265a3 3 0 0 1-1.307 5.701z"/><path d="M116.831 103.502a3.002 3.002 0 0 1-2.149-5.093l19.48-20.012a3.002 3.002 0 0 1 4.3 4.186l-19.48 20.012a2.996 2.996 0 0 1-2.151.907z"/></g></symbol><symbol id="home-hand" viewBox="0 0 150.115 151.735"><g id="Layer_2"><path d="M2.999 151.735c-.408 0-.821-.083-1.212-.258a2.995 2.995 0 0 1-1.723-3.35c1.478-7.06 2.651-13.383 3.686-18.961 4.182-22.532 6.485-34.944 19.055-45.474 7.713-6.462 15.202-9.471 23.567-9.471 5.475 0 10.542 1.293 15.441 2.543l1.129.287c13.331 3.408 28.99 8.608 29.146 8.66a3.002 3.002 0 0 1 1.63 4.382c-.209.352-5.316 8.603-21.933 8.603h-.002c-2.123 0-4.377-.135-6.698-.401a7.374 7.374 0 0 0-.843-.051c-2.221 0-2.313 1.046-2.347 1.439-.201 2.301 2.982 7.227 11.56 8.739 2.373.417 5.096.629 8.092.629 15.197 0 37.177-5.782 47.652-15.459 5.07-4.685 9.887-7.061 14.315-7.061 3.24 0 5.099 1.314 5.438 1.578a2.999 2.999 0 0 1 .939 3.502c-11.422 28.026-40.167 45.437-75.018 45.437-5.04 0-10.22-.369-15.396-1.097-4.578-.644-9.051-.97-13.295-.97-29.109 0-40.29 14.881-40.752 15.514a2.998 2.998 0 0 1-2.431 1.24zm43.373-71.512c-6.877 0-13.142 2.564-19.714 8.07-10.917 9.145-12.953 20.114-17.008 41.969-.569 3.068-1.18 6.36-1.861 9.879 6.935-5.096 19.216-11.157 38.396-11.157 4.522 0 9.277.346 14.13 1.028 4.9.689 9.799 1.038 14.561 1.038 30.991 0 56.714-14.655 68.044-38.486-1.801.174-5.063 1.2-9.648 5.438-11.99 11.076-35.598 17.052-51.724 17.052-3.344 0-6.416-.242-9.133-.721-11.401-2.01-17.008-9.316-16.496-15.17.401-4.579 4.458-7.442 9.851-6.827 2.096.24 4.119.362 6.015.362 6.662 0 10.883-1.458 13.429-2.903-5.653-1.798-15.201-4.74-23.751-6.927l-1.132-.288c-4.751-1.213-9.238-2.357-13.959-2.357z"/><path d="M125.166 90.167a3 3 0 0 1-3-3V61.829a3 3 0 0 1 3-3H138.8c.404-.51.62-1.07.62-1.634 0-.815-.454-1.626-1.279-2.282L78.253 7.271c-2.105-1.678-5.797-1.678-7.904-.001L48.195 24.896a3 3 0 1 1-4.868-2.348V6.296h-14.87V39.15c0 .914-.417 1.778-1.132 2.348L10.467 54.913c-.824.655-1.278 1.467-1.279 2.282 0 .563.216 1.124.62 1.634h13.633a3 3 0 0 1 3 3V73.06a3 3 0 1 1-6 0v-8.231H8.599a3 3 0 0 1-1.869-.653c-2.251-1.794-3.542-4.339-3.542-6.981.001-2.643 1.292-5.186 3.542-6.977l15.727-12.514V4.502A4.211 4.211 0 0 1 26.663.296h18.46a4.21 4.21 0 0 1 4.204 4.206v11.825L66.613 2.575c4.313-3.435 11.068-3.432 15.378.001l59.886 47.642c2.252 1.791 3.543 4.334 3.544 6.977.001 2.644-1.29 5.188-3.542 6.981a3 3 0 0 1-1.869.653h-11.844v22.338a3 3 0 0 1-3 3z"/><path d="M90.303 80.534a3 3 0 0 1-3-3v-9.28c0-1.318-1.462-2.432-3.193-2.432H64.498c-1.73 0-3.193 1.113-3.193 2.432a3 3 0 1 1-6 0c0-4.649 4.124-8.432 9.193-8.432H84.11c5.069 0 9.193 3.782 9.193 8.432v9.28a3 3 0 0 1-3 3z"/></g></symbol><symbol id="home" viewBox="0 0 148.42 139.841"><g id="Layer_2"><path d="M119.505 139.841H93.089a3 3 0 0 1-3-3V82.597a3.297 3.297 0 0 0-3.293-3.293H61.624a3.297 3.297 0 0 0-3.293 3.293v54.244a3 3 0 0 1-3 3H28.914c-5.997 0-10.876-4.88-10.876-10.879V67.495H5.522a3 3 0 0 1-1.867-.651C1.333 64.996 0 62.375 0 59.652s1.333-5.344 3.656-7.191l16.492-13.12V4.565c0-2.349 1.91-4.26 4.258-4.26h19.299a4.264 4.264 0 0 1 4.258 4.26V17.21L66.254 2.657C68.41.943 71.235 0 74.209 0c2.975 0 5.799.943 7.953 2.657l62.604 49.805c2.322 1.847 3.653 4.468 3.653 7.19s-1.332 5.344-3.653 7.19a2.996 2.996 0 0 1-1.868.652h-12.517v61.467c.002 6-4.878 10.88-10.876 10.88zm-23.416-6h23.416a4.883 4.883 0 0 0 4.878-4.879V64.495a3 3 0 0 1 3-3h14.318c.468-.569.719-1.203.719-1.843 0-.896-.493-1.782-1.389-2.495L78.427 7.353C77.347 6.492 75.809 6 74.209 6s-3.138.493-4.221 1.354L46.83 25.778a3 3 0 1 1-4.868-2.348V6.306H26.147v34.482c0 .914-.417 1.778-1.132 2.348L7.39 57.157C6.494 57.87 6 58.756 6 59.652c0 .64.251 1.273.72 1.843h14.318a3 3 0 0 1 3 3v64.467a4.884 4.884 0 0 0 4.876 4.879h23.417V82.597c0-5.124 4.169-9.293 9.293-9.293h25.172c5.124 0 9.293 4.169 9.293 9.293v51.244z"/><path d="M95.906 139.841H51.854a3 3 0 1 1 0-6h44.052a3 3 0 1 1 0 6zm1.163-84.303H51.351a3.004 3.004 0 0 1-1.866-.65c-1.253-.996-1.973-2.438-1.974-3.958s.718-2.964 1.971-3.962l20.833-16.574c1.07-.852 2.453-1.32 3.894-1.32s2.824.469 3.894 1.32l20.833 16.574c1.254.998 1.973 2.442 1.972 3.962s-.72 2.962-1.974 3.958c-.53.421-1.187.65-1.865.65zm-41.18-6H92.53L74.368 35.089c.004.007-.058-.016-.158-.016a.458.458 0 0 0-.181.031l-18.14 14.434z"/><circle cx="80.136" cy="107.15" r="5.218"/></g></symbol><symbol id="horn" viewBox="0 0 463 463"><path d="M453.627 64.526c-5.957-4.481-13.48-5.864-20.641-3.8L38.44 174.538H23.5c-12.958 0-23.5 10.542-23.5 23.5v64c0 12.958 10.542 23.5 23.5 23.5h14.94L112 306.757v25.523c0 21.041 14.119 39.809 34.335 45.64l82.217 23.716a39.787 39.787 0 0 0 11.059 1.575c8.425 0 16.669-2.721 23.635-7.962C273.258 387.716 279 376.212 279 363.683v-8.753l153.986 44.419a23.73 23.73 0 0 0 6.58.938c5.012 0 9.917-1.619 14.062-4.737 5.957-4.481 9.373-11.326 9.373-18.779V83.305c-.001-7.453-3.417-14.298-9.374-18.779zM47 272.396V187.68L416 81.238v297.6L47 272.396zm-32-10.358v-64c0-4.687 3.813-8.5 8.5-8.5H32v81h-8.5c-4.687 0-8.5-3.814-8.5-8.5zm249 101.645c0 7.771-3.562 14.907-9.771 19.578-6.209 4.672-14.052 6.116-21.519 3.962l-82.217-23.716C136.66 359.517 127 346.676 127 332.28v-21.196l137 39.519v13.08zm184 13.087a8.429 8.429 0 0 1-3.39 6.792 8.427 8.427 0 0 1-7.466 1.375L431 383.165V76.911l6.144-1.772a8.427 8.427 0 0 1 7.466 1.375 8.429 8.429 0 0 1 3.39 6.792V376.77z"/><path d="M390.712 114.031a7.5 7.5 0 0 0-9.285-5.127l-16.009 4.618a7.5 7.5 0 1 0 4.158 14.412l16.009-4.618a7.5 7.5 0 0 0 5.127-9.285zm-57.295 8.723l-120 34.615a7.5 7.5 0 0 0-5.127 9.285 7.504 7.504 0 0 0 7.203 5.423c.688 0 1.388-.096 2.082-.296l120-34.615a7.5 7.5 0 0 0 5.127-9.285 7.498 7.498 0 0 0-9.285-5.127z"/></symbol><symbol id="instagram" viewBox="0 0 510 510"><path d="M459 0H51C22.95 0 0 22.95 0 51v408c0 28.05 22.95 51 51 51h408c28.05 0 51-22.95 51-51V51c0-28.05-22.95-51-51-51zM255 153c56.1 0 102 45.9 102 102s-45.9 102-102 102-102-45.9-102-102 45.9-102 102-102zM63.75 459C56.1 459 51 453.9 51 446.25V229.5h53.55C102 237.15 102 247.35 102 255c0 84.15 68.85 153 153 153s153-68.85 153-153c0-7.65 0-17.85-2.55-25.5H459v216.75c0 7.65-5.1 12.75-12.75 12.75H63.75zM459 114.75c0 7.65-5.1 12.75-12.75 12.75h-51c-7.65 0-12.75-5.1-12.75-12.75v-51c0-7.65 5.1-12.75 12.75-12.75h51C453.9 51 459 56.1 459 63.75v51z" id="post-instagram"/></symbol><symbol id="interior" viewBox="0 0 146.292 144.691"><g id="Layer_2"><path d="M106.765 123.34H39.986a5.354 5.354 0 0 1-5.347-5.348V41.301a5.354 5.354 0 0 1 5.347-5.348h66.779a5.355 5.355 0 0 1 5.349 5.348v76.691a5.356 5.356 0 0 1-5.349 5.348zm-66.126-6h65.474V41.953H40.639v75.387z"/><path d="M36.598 41.756a2.996 2.996 0 0 1-2.24-1.003L2.466 4.997a3 3 0 1 1 4.478-3.994l31.893 35.756a3 3 0 0 1-2.239 4.997zm73.683 0a3 3 0 0 1-2.203-5.035L141.088.965a2.999 2.999 0 1 1 4.408 4.07l-33.01 35.756a2.986 2.986 0 0 1-2.205.965zm32.423 102.935a2.986 2.986 0 0 1-1.557-.438l-33.011-20.086a3 3 0 0 1 3.119-5.125l33.011 20.086a3 3 0 0 1-1.562 5.563zm-139.701 0a2.998 2.998 0 0 1-1.563-5.562l33.01-20.086a2.999 2.999 0 0 1 4.123 1.003 3 3 0 0 1-1.003 4.122L4.56 144.254a2.98 2.98 0 0 1-1.557.437zm86.835-43.171h-29c-3.309 0-6-2.691-6-6v-36c0-3.309 2.691-6 6-6h29c3.309 0 6 2.691 6 6v36c0 3.308-2.692 6-6 6zm-29.001-42v36h29.004l-.004-36h-29z"/><path d="M89.838 76.52h-29a3 3 0 1 1 0-6h29a3 3 0 1 1 0 6z"/><path d="M75.338 99.52a3 3 0 0 1-3-3v-21.5a3 3 0 1 1 6 0v21.5a3 3 0 0 1-3 3z"/></g></symbol><symbol id="key" viewBox="0 0 112.999 159.6"><g id="Layer_2"><path d="M87.708 24.262a3 3 0 0 1 3 3v42a3 3 0 1 1-6 0v-42a3 3 0 0 1 3-3zm-6.241 67.367c6.816 0 12.362 5.546 12.362 12.363-.001 6.814-5.547 12.36-12.362 12.363-6.817-.003-12.362-5.549-12.363-12.362 0-6.818 5.546-12.364 12.363-12.364zm0 18.726a6.373 6.373 0 0 0 6.362-6.364 6.37 6.37 0 0 0-6.362-6.362 6.37 6.37 0 0 0-6.363 6.363 6.372 6.372 0 0 0 6.363 6.363zM8.35 12.717h32.546c4.604 0 8.35 3.746 8.35 8.35v55.729c0 4.605-3.746 8.352-8.35 8.352H8.35C3.746 85.146 0 81.4 0 76.795V21.066c0-4.603 3.746-8.349 8.35-8.349zm32.546 66.429a2.354 2.354 0 0 0 2.35-2.352V21.066a2.352 2.352 0 0 0-2.35-2.35H8.35A2.353 2.353 0 0 0 6 21.066v55.729a2.353 2.353 0 0 0 2.35 2.352h32.546z"/><path d="M25.292 80.93a3 3 0 0 1 3 3v44.582c0 13.834 11.254 25.088 25.088 25.088 13.833 0 25.087-11.254 25.087-25.088v-14.266a3 3 0 1 1 6 0v14.266c0 17.142-13.945 31.088-31.087 31.088s-31.088-13.946-31.088-31.088V83.93a3 3 0 0 1 3-3z"/><path d="M80.352 0c2.138 0 4.276.813 5.903 2.44l14.274 14.276c.563.563.878 1.325.878 2.121V72.22c7.387 6.101 11.592 14.996 11.591 24.639.001 13.25-8.333 25.283-20.738 29.943a3 3 0 1 1-2.111-5.617c10.078-3.786 16.849-13.562 16.848-24.326.001-8.248-3.787-15.823-10.393-20.785a3 3 0 0 1-1.198-2.398V20.08L82.013 6.684a2.353 2.353 0 0 0-3.323.001l-8.044 8.044v8.163l7.155 4.757c1.846 1.225 2.906 3.051 2.907 5.009 0 1.959-1.059 3.787-2.907 5.016l-6.542 4.347 5.206 3.461c1.847 1.227 2.906 3.054 2.906 5.014 0 1.959-1.061 3.785-2.908 5.012l-5.816 3.864-.001 11.782a3 3 0 0 1-1.613 2.66c-8.629 4.5-13.99 13.331-13.991 23.047.001 10.983 6.958 20.824 17.311 24.488a3 3 0 1 1-2.002 5.656c-12.744-4.51-21.308-16.624-21.309-30.145a31.89 31.89 0 0 1 15.604-27.467l.001-11.631c0-1.005.503-1.942 1.34-2.499l7.157-4.756.022-.015-.021-.015-7.158-4.759a3 3 0 0 1-1.339-2.497l-.001-2.402a3 3 0 0 1 1.34-2.5l8.495-5.645.022-.015-.021-.014-8.496-5.648a3 3 0 0 1-1.339-2.498V13.486c0-.796.316-1.559.879-2.121l8.924-8.924A8.319 8.319 0 0 1 80.352 0z"/></g></symbol><symbol id="leaf" viewBox="0 0 45.795 45.795"><path d="M43.564.076c-.9.03-22.171.841-31.812 10.482C.142 22.168 4.397 31.22 7.565 35.274L.611 42.229a2.089 2.089 0 0 0 2.954 2.953l6.944-6.945c2.807 2.238 6.027 3.41 9.424 3.41 5.107 0 10.257-2.558 15.303-7.604 9.643-9.644 10.453-30.91 10.485-31.812l.073-2.23-2.23.075zM32.283 31.09c-4.175 4.175-8.445 6.382-12.351 6.382-2.28 0-4.475-.759-6.445-2.212l4.922-4.922 8.384 2.019a2.087 2.087 0 0 0 2.517-1.541 2.087 2.087 0 0 0-1.542-2.52l-5.898-1.419 4.214-4.214 4.563 1.045a2.085 2.085 0 0 0 2.501-1.572 2.086 2.086 0 0 0-1.568-2.501l-2.01-.459 5.379-5.378a2.088 2.088 0 1 0-2.953-2.952l-5.403 5.404-.477-2.076a2.082 2.082 0 0 0-2.5-1.569 2.087 2.087 0 0 0-1.57 2.501l1.061 4.63-4.214 4.214-1.438-5.964a2.087 2.087 0 1 0-4.058.976l2.033 8.45-4.899 4.899c-3.974-5.367-2.518-12.108 4.171-18.798 6.767-6.766 21.086-8.626 26.688-9.105-.479 5.596-2.341 19.916-9.107 26.682z"/></symbol><symbol id="left-arrow" viewBox="0 0 31.494 31.494"><path d="M10.273 5.009a1.112 1.112 0 0 1 1.587 0 1.12 1.12 0 0 1 0 1.571l-8.047 8.047h26.554c.619 0 1.127.492 1.127 1.111s-.508 1.127-1.127 1.127H3.813l8.047 8.032c.429.444.429 1.159 0 1.587a1.112 1.112 0 0 1-1.587 0L.321 16.532a1.12 1.12 0 0 1 0-1.571l9.952-9.952z"/></symbol><symbol id="mark-place" viewBox="0 0 489.827 489.827"><path d="M237.777.127c-99.3 3.4-181.3 80.6-190.8 179.4-1.8 19-1 38.2 2.6 56.8.1.8.5 3 1.3 6.5 3 13.5 7.5 26.6 13.3 39.2 20.2 47.7 64.3 121.1 159.7 200.2 5.9 4.9 13.4 7.6 21 7.6 7.7 0 15.1-2.7 21-7.6 95.3-79.1 139.4-152.5 159.7-200.2 5.8-12.6 10.3-25.8 13.3-39 .5-2.2 1-4.3 1.3-6.4 2.4-12.4 3.6-25.1 3.6-37.7 0-112.1-93.3-202.8-206-198.8zm168.7 230c0 .2-.1.4-.1.5-.1.3-.3 1.8-1 4.6-2.5 11.2-6.3 22.2-11.1 32.6-.1.2-.2.3-.2.5-18.6 44.1-59.6 112.2-149.2 186.7-89.6-74.6-130.6-142.7-149.2-186.7-.1-.2-.1-.3-.2-.5-4.8-10.5-8.6-21.4-11.1-32.8-.5-2.3-.8-3.7-.9-4.2 0-.2-.1-.5-.1-.7-3-15.5-3.7-31.5-2.2-47.3 7.9-81.7 75.7-145.5 157.9-148.4 2-.1 3.9-.1 5.9-.1 90.7 0 164.6 73.8 164.6 164.6-.1 10.4-1.1 20.9-3.1 31.2z"/><path d="M244.877 95.527c-58.1 0-105.5 47.3-105.5 105.5s47.4 105.4 105.5 105.4 105.5-47.3 105.5-105.5-47.4-105.4-105.5-105.4zm0 176.6c-39.2 0-71.2-31.9-71.2-71.2 0-39.2 31.9-71.2 71.2-71.2 39.2 0 71.2 31.9 71.2 71.2s-32 71.2-71.2 71.2z"/></symbol><symbol id="mark" viewBox="0 0 143.313 130.064"><g id="Layer_2"><path d="M71.657 98.251a2.997 2.997 0 0 1-2.281-1.052c-1.412-1.653-34.6-40.728-34.6-60.32C34.776 16.544 51.321 0 71.657 0s36.88 16.544 36.88 36.88c0 19.592-33.187 58.667-34.599 60.32a2.996 2.996 0 0 1-2.281 1.051zm0-92.251C54.629 6 40.776 19.853 40.776 36.88c0 13.361 20.517 41.085 30.881 53.697 10.364-12.612 30.88-40.335 30.88-53.697C102.537 19.853 88.685 6 71.657 6z"/><path d="M71.657 51.666c-8.153 0-14.786-6.633-14.786-14.786 0-8.153 6.633-14.786 14.786-14.786 8.152 0 14.785 6.633 14.785 14.786 0 8.153-6.632 14.786-14.785 14.786zm0-23.572c-4.845 0-8.786 3.941-8.786 8.786 0 4.844 3.941 8.786 8.786 8.786 4.844 0 8.785-3.941 8.785-8.786s-3.941-8.786-8.785-8.786zm68.656 101.97H3a2.998 2.998 0 0 1-2.78-4.128l20.393-50.281a3 3 0 0 1 2.78-1.873h18.694a3 3 0 1 1 0 6H25.413L7.454 124.064h128.405l-17.958-44.281h-16.675a3 3 0 1 1 0-6h18.695a3 3 0 0 1 2.78 1.873l20.392 50.281a3 3 0 0 1-2.78 4.127z"/></g></symbol><symbol id="order-phone" viewBox="0 0 473.806 473.806"><path d="M374.456 293.506c-9.7-10.1-21.4-15.5-33.8-15.5-12.3 0-24.1 5.3-34.2 15.4l-31.6 31.5c-2.6-1.4-5.2-2.7-7.7-4-3.6-1.8-7-3.5-9.9-5.3-29.6-18.8-56.5-43.3-82.3-75-12.5-15.8-20.9-29.1-27-42.6 8.2-7.5 15.8-15.3 23.2-22.8 2.8-2.8 5.6-5.7 8.4-8.5 21-21 21-48.2 0-69.2l-27.3-27.3c-3.1-3.1-6.3-6.3-9.3-9.5-6-6.2-12.3-12.6-18.8-18.6-9.7-9.6-21.3-14.7-33.5-14.7s-24 5.1-34 14.7l-.2.2-34 34.3c-12.8 12.8-20.1 28.4-21.7 46.5-2.4 29.2 6.2 56.4 12.8 74.2 16.2 43.7 40.4 84.2 76.5 127.6 43.8 52.3 96.5 93.6 156.7 122.7 23 10.9 53.7 23.8 88 26 2.1.1 4.3.2 6.3.2 23.1 0 42.5-8.3 57.7-24.8.1-.2.3-.3.4-.5 5.2-6.3 11.2-12 17.5-18.1 4.3-4.1 8.7-8.4 13-12.9 9.9-10.3 15.1-22.3 15.1-34.6 0-12.4-5.3-24.3-15.4-34.3l-54.9-55.1zm35.8 105.3c-.1 0-.1.1 0 0-3.9 4.2-7.9 8-12.2 12.2-6.5 6.2-13.1 12.7-19.3 20-10.1 10.8-22 15.9-37.6 15.9-1.5 0-3.1 0-4.6-.1-29.7-1.9-57.3-13.5-78-23.4-56.6-27.4-106.3-66.3-147.6-115.6-34.1-41.1-56.9-79.1-72-119.9-9.3-24.9-12.7-44.3-11.2-62.6 1-11.7 5.5-21.4 13.8-29.7l34.1-34.1c4.9-4.6 10.1-7.1 15.2-7.1 6.3 0 11.4 3.8 14.6 7l.3.3c6.1 5.7 11.9 11.6 18 17.9 3.1 3.2 6.3 6.4 9.5 9.7l27.3 27.3c10.6 10.6 10.6 20.4 0 31-2.9 2.9-5.7 5.8-8.6 8.6-8.4 8.6-16.4 16.6-25.1 24.4-.2.2-.4.3-.5.5-8.6 8.6-7 17-5.2 22.7l.3.9c7.1 17.2 17.1 33.4 32.3 52.7l.1.1c27.6 34 56.7 60.5 88.8 80.8 4.1 2.6 8.3 4.7 12.3 6.7 3.6 1.8 7 3.5 9.9 5.3.4.2.8.5 1.2.7 3.4 1.7 6.6 2.5 9.9 2.5 8.3 0 13.5-5.2 15.2-6.9l34.2-34.2c3.4-3.4 8.8-7.5 15.1-7.5 6.2 0 11.3 3.9 14.4 7.3l.2.2 55.1 55.1c10.3 10.2 10.3 20.7.1 31.3zm-154.2-286.1c26.2 4.4 50 16.8 69 35.8s31.3 42.8 35.8 69c1.1 6.6 6.8 11.2 13.3 11.2.8 0 1.5-.1 2.3-.2 7.4-1.2 12.3-8.2 11.1-15.6-5.4-31.7-20.4-60.6-43.3-83.5s-51.8-37.9-83.5-43.3c-7.4-1.2-14.3 3.7-15.6 11s3.5 14.4 10.9 15.6zm217.2 96.3c-8.9-52.2-33.5-99.7-71.3-137.5s-85.3-62.4-137.5-71.3c-7.3-1.3-14.2 3.7-15.5 11-1.2 7.4 3.7 14.3 11.1 15.6 46.6 7.9 89.1 30 122.9 63.7 33.8 33.8 55.8 76.3 63.7 122.9 1.1 6.6 6.8 11.2 13.3 11.2.8 0 1.5-.1 2.3-.2 7.3-1.1 12.3-8.1 11-15.4z"/></symbol><symbol id="pen" viewBox="0 0 476.2 476.2"><path d="M433.812 19.9c-12.8-12.8-29.8-19.9-48-19.9s-35.1 7.1-48 19.9c-4.7 4.7-4.7 12.3 0 17 4.7 4.7 12.3 4.7 17 0 8.3-8.3 19.3-12.8 31-12.8s22.7 4.6 31 12.8c17.1 17.1 17.1 44.9 0 62-.3.3-.6.6-.8.9-.3.3-.6.5-.9.8l-18.2 18.2-101.2-101.1c-4.7-4.7-12.3-4.7-17 0l-155 155c-4.7 4.7-4.7 12.3 0 17 2.3 2.3 5.4 3.5 8.5 3.5s6.1-1.2 8.5-3.5l146.5-146.6 13.7 13.7-235.2 235.3c-2.3 2.3-3.5 5.3-3.5 8.5s1.3 6.2 3.5 8.5l7.6 7.6-33.5 33.4c-2.3 2.3-3.5 5.3-3.5 8.5s1.3 6.2 3.5 8.5l14.9 14.9-28.6 28.6c-4.7 4.7-4.7 12.3 0 17 2.3 2.3 5.4 3.5 8.5 3.5s6.1-1.2 8.5-3.5l28.6-28.6 14.9 14.9c2.3 2.3 5.3 3.5 8.5 3.5s6.2-1.3 8.5-3.5l33.5-33.5 7.6 7.6c2.3 2.3 5.4 3.5 8.5 3.5s6.1-1.2 8.5-3.5l270.4-270.4c.3-.3.6-.6.8-.9.3-.3.6-.5.9-.8 26.4-26.6 26.4-69.6 0-96zM95.013 388.4l-29.8-29.8 25-25 14.9 14.9 14.9 14.9-25 25zm58.1-25.9l-7.6-7.6-23.4-23.4-31-31 226.8-226.7 62 62-226.8 226.7zm266.999 89.7h-385.5c-6.6 0-12 5.4-12 12s5.4 12 12 12h385.5c6.6 0 12-5.4 12-12s-5.4-12-12-12z"/></symbol><symbol id="people" viewBox="0 0 473.167 473.167"><path d="M108.262 196.284c14.137 10.019 30.132 15.313 46.263 15.313 21.127 0 41.941-8.887 58.603-25.027 4.461-4.321 9.12-9.361 10.369-10.852.513-.619.993-1.343 1.419-2.138 15.988-30.211 13.322-61.456-7.322-85.724-4.918-5.784-9.277-10.682-10.847-12.195-.774-.744-1.721-1.409-2.818-1.97-14.398-7.404-28.979-11.159-43.325-11.159-19.723 0-38.77 6.993-56.606 20.794a10.93 10.93 0 0 0-1.96 1.917c-1.277 1.65-5.414 7.297-9.082 12.69-23.688 34.73-17.392 75.175 15.306 98.351zm9.63-94.368c.348-.368.66-.754.939-1.143 1.473-2.039 6.995-6.688 13.137-9.771 13.84-6.959 29.331-8.449 44.755-4.336 7.259 1.935 17.293 8.132 22.363 13.815 13.083 14.652 17.217 31.714 11.943 49.342-1.855 6.198-5.078 12.39-6.396 13.764-11.923 16.031-28.708 24.765-47.421 24.765-22.838 0-44.511-13.299-52.707-32.342-4.409-10.254-8.542-30.929 13.387-54.094zm201.022 13.24c10.587 7.498 22.576 11.464 34.672 11.464 15.828 0 31.412-6.645 43.874-18.718 3.361-3.25 6.748-6.921 7.698-8.061.437-.526.838-1.123 1.183-1.777 11.989-22.645 9.974-46.083-5.524-64.302-3.631-4.268-6.865-7.904-8.044-9.042-.649-.629-1.447-1.186-2.361-1.655-10.744-5.525-21.637-8.328-32.366-8.328-14.762 0-28.995 5.22-42.315 15.521a9.331 9.331 0 0 0-1.65 1.627c-.949 1.216-4.001 5.388-6.718 9.374-17.774 26.083-13.032 56.472 11.551 73.897zm8.663-69.449c.299-.32.559-.64.797-.97.884-1.221 4.712-4.55 9.201-6.794 9.902-4.972 20.962-6.038 32.002-3.095 5.128 1.368 12.228 5.75 15.827 9.777 9.44 10.575 12.31 22.374 8.511 35.066-1.441 4.811-3.742 8.919-4.407 9.615-8.622 11.57-20.597 17.808-33.941 17.808-16.295 0-31.747-9.463-37.577-23.008-3.129-7.253-6.038-21.891 9.587-38.399zm139.385 115.598a9.866 9.866 0 0 0-1.346-3.963c-8.089-13.729-21.957-20.571-38.653-18.527-.061.005-.117.016-.168.025a6.732 6.732 0 0 0-.73-.045c-12.197 0-24.421-.134-36.653-.272-12.264-.134-24.542-.269-36.811-.269-22.637 0-52.455.406-82.456 3.577a10.258 10.258 0 0 0-3.803.432c-11.67 3.562-21.079 11.626-25.822 22.13a12.584 12.584 0 0 0-.967 3.199 10.126 10.126 0 0 0-.896 4.034c-.119 6.229-.269 12.459-.414 18.682a3300.09 3300.09 0 0 0-.536 27.414c.858.007 1.722.018 2.58.022.874.005 1.747.016 2.62.025 3.22.03 6.435.084 9.648.15.863.02 1.727.069 2.585.089.868.02 1.741.063 2.609.089.133-9.521.325-19.007.539-28.366.132-5.631.259-11.268.375-16.899 2.778-5.454 6.947-9.163 12.4-11.029 29.676-3.115 59.215-3.514 81.659-3.514 12.233 0 24.476.134 36.704.269 12.02.135 24.028.252 35.703.252.771.091 1.604.114 2.488 0a36.654 36.654 0 0 1 4.393-.287c7.53 0 12.715 2.844 16.315 8.955.188.314.386.606.589.884 2.554 33.352 3.91 67.897 4.148 105.505-8.368.021-17.828.122-27.299.549-.574-21.521-1.676-49.242-2.666-67.035-.355-6.307-5.515-9.61-10.431-9.61-2.823 0-5.464 1.072-7.226 2.933-1.706 1.805-2.523 4.212-2.377 6.962 1.188 21.155 2.636 58.564 3.007 82.507-15.895-.071-31.794-.224-47.688-.371-11.091-.111-22.181-.183-33.281-.264.097.868.183 1.736.274 2.609.081.863.147 1.731.224 2.601.243 2.863.441 5.738.584 8.617.046.868.106 1.731.142 2.6.036.868.051 1.731.087 2.6 10.669.087 21.343.117 32.017.229 19.845.203 39.679.406 59.523.432h.016c3.453 0 6.357-1.64 7.973-4.499 1.609-2.854 1.681-6.591.224-9.531l-.021-1.798c10.75-.482 21.454-.548 31.479-.548 1.854 0 3.564-.487 5.012-1.401.178.005.355.01.533.01 2.803 0 5.464-1.051 7.292-2.895 1.777-1.777 2.712-4.153 2.706-6.875-.086-40.975-1.503-78.648-4.331-115.161-.147-1.933-.791-3.728-1.873-5.223zm-40.842-19.911v.005-.005z"/><path d="M294.017 226.384a59.732 59.732 0 0 1 9.699 8.279c.878.93 1.808 1.836 2.62 2.813.938 1.132 1.771 2.336 2.63 3.529-.102-12.197-.188-23.674-.203-32.243-.021-10.026-12.232-11.976-17.331-6.875-1.772 1.779-2.706 4.161-2.701 6.886.01 4.174.03 9.056.065 14.36a62.941 62.941 0 0 1 2.61 1.531 63.919 63.919 0 0 1 2.611 1.72zm17.153 88.614a1260.99 1260.99 0 0 0-.168-6.53c-.025-.874-.046-1.737-.071-2.601-.025-.873-.076-1.736-.106-2.6-.106-2.879-.203-5.753-.36-8.622-.046-.874-.137-1.732-.188-2.601-.051-.873-.138-1.746-.193-2.609-.157-2.214-.279-4.429-.492-6.632-.076-.833-.203-1.687-.29-2.529-.437-4.052-.985-8.186-1.909-12.248-.229-1.016-.538-2.011-.812-3.006-.716-2.59-1.563-5.129-2.66-7.551-1.407-3.098-3.144-6.028-5.368-8.658-1.239-1.463-2.757-2.844-4.377-4.169-.843-.69-1.696-1.376-2.615-2.026a53.23 53.23 0 0 0-2.615-1.691 54.686 54.686 0 0 0-5.845-3.11 55.35 55.35 0 0 0-9.831-3.443c-2.401-.592-4.769-1.033-6.987-1.19-2.863-.198-5.753-.265-8.647-.312-.854-.016-1.706-.051-2.56-.051-.884-.005-1.767.021-2.65.021a488.05 488.05 0 0 0-9.674.124c-.863.021-1.731.041-2.595.063l-2.605.061c-4.298.099-8.589.183-12.842.147-7.467-.068-14.935-.152-22.406-.23-7.399-.082-14.795-.16-22.193-.229-29.745-.259-59.512-.254-89.235 1.081-16.687.749-33.353 1.915-49.965 3.677-1.274-.145-2.664-.041-4.159.416-14.446 4.413-26.708 14.33-32.979 28.219a13.532 13.532 0 0 0-1.112 3.94c-.655 1.279-1.076 2.772-1.107 4.52-.947 48.297-2.956 96.532 0 144.793.254 4.159 2.521 6.973 5.438 8.46 1.493 1.422 3.542 2.366 6.208 2.366 19.111 0 38.214-.086 57.307-.97.043 6.403.069 12.354.079 17.489.005 1.782.411 3.295 1.066 4.59 1.147 3.275 3.979 5.891 8.495 5.896 54.027.062 108.049 1.117 162.074 1.179 8.452.01 10.996-9.12 7.655-14.65-.016-2.133-.046-4.397-.076-6.743 15.472-.787 30.955-.914 46.453-.92 2.447 0 4.377-.792 5.834-2.011 5.556.818 11.812-2.376 11.797-9.638-.071-31.62-1.331-63.14-2.311-94.734-.179-4.907-.287-9.823-.403-14.738zm-61.778 103.26c-.793-31.561-2.397-71.133-3.723-94.812-.721-12.948-20.937-13.02-20.203 0 1.643 29.422 3.737 83.513 4.149 116.123-46.289-.173-92.58-.894-138.868-1.056-.145-32.489-.759-84.782-.81-113.381-.028-13.03-20.233-13.03-20.208 0 .043 21.286.391 55.726.63 85.351-16.328.751-32.662.924-49.002.949-2.29-45.361-.531-90.713.368-136.104 4.113-8.48 10.613-14.66 19.66-17.642 28.647-3.021 57.449-4.255 86.247-4.672 18.177-.264 36.361-.183 54.54-.021 10.722.102 21.444.224 32.162.33 7.794.087 15.589.021 23.384-.04l2.58-.016c.874-.005 1.747-.01 2.621-.021 2.838-.01 5.672-.04 8.511-.04.381 0 .767 0 1.147-.011.884 0 1.762 0 2.655-.01.849 0 1.706.01 2.564.021 3.809.03 7.647.269 11.309 1.056 4.276.925 8.293 2.621 11.629 5.881a24.56 24.56 0 0 1 4.215 5.469 24.243 24.243 0 0 1 1.62 3.407c.314.833.589 1.676.822 2.534.238.854.432 1.722.604 2.605.416 2.203.67 4.498.802 6.931.031.533.066 1.071.097 1.61.056.863.112 1.727.163 2.59.051.883.111 1.757.167 2.641.025.462.056.924.087 1.381.259 4.133.497 8.262.762 12.4.248 3.91.502 7.83.7 11.75.005.107.016.214.021.33 1.076 22.019 1.777 44.042 2.315 66.07.305 12.481.416 24.963.478 37.444-14.743.033-29.475.192-44.195.953z"/></symbol><symbol id="play" viewBox="0 0 58.752 58.752"><path d="M52.524 23.925L12.507.824c-1.907-1.1-4.376-1.097-6.276 0a6.294 6.294 0 0 0-3.143 5.44v46.205a6.29 6.29 0 0 0 3.131 5.435 6.263 6.263 0 0 0 6.29.005l40.017-23.103a6.3 6.3 0 0 0 3.138-5.439 6.315 6.315 0 0 0-3.14-5.442zm-3 5.687L9.504 52.716a.27.27 0 0 1-.279-.005.28.28 0 0 1-.137-.242V6.263a.28.28 0 0 1 .421-.243l40.01 23.098a.29.29 0 0 1 .145.249.283.283 0 0 1-.14.245z"/></symbol><symbol id="printer" viewBox="0 0 482.5 482.5"><path d="M399.25 98.9h-12.4V71.3c0-39.3-32-71.3-71.3-71.3h-149.7c-39.3 0-71.3 32-71.3 71.3v27.6h-11.3c-39.3 0-71.3 32-71.3 71.3v115c0 39.3 32 71.3 71.3 71.3h11.2v90.4c0 19.6 16 35.6 35.6 35.6h221.1c19.6 0 35.6-16 35.6-35.6v-90.4h12.5c39.3 0 71.3-32 71.3-71.3v-115c0-39.3-32-71.3-71.3-71.3zm-277.8-27.6c0-24.4 19.9-44.3 44.3-44.3h149.6c24.4 0 44.3 19.9 44.3 44.3v27.6h-238.2V71.3zm238.3 375.8c0 4.7-3.9 8.6-8.6 8.6h-221.1c-4.7 0-8.6-3.9-8.6-8.6V298h238.3v149.1zm83.8-161.8c0 24.4-19.9 44.3-44.3 44.3h-12.4V298h17.8c7.5 0 13.5-6 13.5-13.5s-6-13.5-13.5-13.5h-330c-7.5 0-13.5 6-13.5 13.5s6 13.5 13.5 13.5h19.9v31.6h-11.3c-24.4 0-44.3-19.9-44.3-44.3v-115c0-24.4 19.9-44.3 44.3-44.3h316c24.4 0 44.3 19.9 44.3 44.3v115z"/><path d="M154.15 364.4h171.9c7.5 0 13.5-6 13.5-13.5s-6-13.5-13.5-13.5h-171.9c-7.5 0-13.5 6-13.5 13.5s6.1 13.5 13.5 13.5zm173 28.2h-172c-7.5 0-13.5 6-13.5 13.5s6 13.5 13.5 13.5h171.9c7.5 0 13.5-6 13.5-13.5s-6-13.5-13.4-13.5zm71.8-240.7h-27.4c-7.5 0-13.5 6-13.5 13.5s6 13.5 13.5 13.5h27.4c7.5 0 13.5-6 13.5-13.5s-6-13.5-13.5-13.5z"/></symbol><symbol id="right-arrow" viewBox="0 0 31.49 31.49"><path d="M21.205 5.007a1.112 1.112 0 0 0-1.587 0 1.12 1.12 0 0 0 0 1.571l8.047 8.047H1.111A1.106 1.106 0 0 0 0 15.737c0 .619.492 1.127 1.111 1.127h26.554l-8.047 8.032c-.429.444-.429 1.159 0 1.587a1.112 1.112 0 0 0 1.587 0l9.952-9.952a1.093 1.093 0 0 0 0-1.571l-9.952-9.953z"/></symbol><symbol id="shield" viewBox="0 0 45.413 45.412"><path d="M42.821 6.161L23.453.113a2.514 2.514 0 0 0-1.492 0L2.593 6.161a2.504 2.504 0 0 0-1.758 2.39c0 26.781 13.531 33.182 20.801 36.621a2.508 2.508 0 0 0 2.14 0c7.271-3.438 20.802-9.84 20.802-36.621a2.504 2.504 0 0 0-1.757-2.39zM22.707 40.137c-6.902-3.317-16.324-8.812-16.842-29.75l16.842-5.26 16.841 5.26c-.517 20.938-9.94 26.432-16.841 29.75z"/><path d="M8.709 12.477c0 6.185 1.609 11.054 3.783 14.804l17.043-17.043-6.829-2.133-13.997 4.372zm13.998 24.83c4.785-2.151 13.79-9.353 13.992-24.317l-19.89 19.89c2.295 2.287 4.538 3.712 5.898 4.427z"/></symbol><symbol id="shower" viewBox="0 0 130 150.564"><g id="Layer_2"><path d="M81 137.063H49c-27.019 0-49-21.981-49-48.999a3 3 0 0 1 3-3h124a3 3 0 0 1 3 3c0 27.019-21.981 48.999-49 48.999zM6.104 91.064C7.649 113.38 26.299 131.063 49 131.063h32c22.701 0 41.351-17.684 42.896-39.999H6.104z"/><path d="M23.999 150.564a3 3 0 0 1-2.776-4.138l6.549-15.994a3 3 0 0 1 5.553 2.273L26.776 148.7a3 3 0 0 1-2.777 1.864zm79.553 0a3 3 0 0 1-2.777-1.864l-6.551-15.994a3 3 0 0 1 5.553-2.275l6.551 15.994a3 3 0 0 1-2.776 4.139zM91.246 39.856a3 3 0 0 1-3-3c0-9.333-7.789-16.926-17.363-16.926-9.572 0-17.359 7.593-17.359 16.926a3 3 0 1 1-6 0c0-12.641 10.479-22.926 23.359-22.926 12.883 0 23.363 10.285 23.363 22.926a3 3 0 0 1-3 3z"/><path d="M121.191 91.063a3 3 0 0 1-3-3V30.795C118.191 17.123 107.068 6 93.396 6c-8.698 0-16.869 4.649-21.324 12.132a3 3 0 0 1-5.156-3.069C72.448 5.772 82.595 0 93.396 0c16.98 0 30.795 13.814 30.795 30.795v57.269a2.999 2.999 0 0 1-3 2.999z"/><path d="M96.928 43.051H42a3 3 0 1 1 0-6h54.928a3 3 0 1 1 0 6zM125 103.064H6a3 3 0 1 1 0-6h119a3 3 0 1 1 0 6z"/></g></symbol><symbol id="standards" viewBox="0 0 45.057 45.057"><g id="_x31_30_32_"><path d="M20.326 16.588h12.253c1.611 0 1.611-2.5 0-2.5H20.326c-1.611 0-1.611 2.5 0 2.5zm12.253 4.417H20.326c-1.611 0-1.611 2.5 0 2.5h12.253c1.611 0 1.611-2.5 0-2.5zm0 6.483H20.326c-1.611 0-1.611 2.5 0 2.5h12.253c1.611 0 1.611-2.5 0-2.5zm0 6.916H20.326c-1.611 0-1.611 2.5 0 2.5h12.253c1.611 0 1.611-2.5 0-2.5zM14.875 12.628l-.355.513c-.434.624-.881 1.264-1.256 1.938a.36.36 0 0 1-.018-.02l-.23-.266c-.436-.498-1.277-.333-1.549.267a.953.953 0 0 0 .152 1.032l.244.283c.314.365.641.744 1.01 1.084a.976.976 0 0 0 .656.258.97.97 0 0 0 .914-.669c.318-.952.975-1.881 1.609-2.78.146-.209.293-.414.432-.617a.883.883 0 0 0 .064-.924c-.31-.589-1.277-.678-1.673-.099zm-.6 6.811l-.355.514c-.436.623-.881 1.264-1.258 1.938l-.016-.02-.232-.267c-.434-.497-1.275-.331-1.547.267a.955.955 0 0 0 .152 1.033l.244.282c.314.366.639.745 1.01 1.084.182.168.414.26.654.26a.973.973 0 0 0 .916-.67c.318-.952.973-1.881 1.607-2.78.148-.209.293-.415.432-.617a.884.884 0 0 0 .066-.924c-.31-.589-1.278-.679-1.673-.1zm0 6.971l-.355.514c-.436.624-.881 1.264-1.258 1.938l-.016-.02-.232-.266c-.434-.498-1.275-.332-1.547.267a.953.953 0 0 0 .152 1.032l.244.283c.314.365.639.744 1.01 1.084a.97.97 0 0 0 .654.258c.414 0 .781-.27.916-.67.318-.951.973-1.881 1.607-2.779a48.1 48.1 0 0 0 .432-.617.883.883 0 0 0 .066-.924c-.31-.588-1.278-.678-1.673-.1zm0 7.117l-.355.514c-.436.623-.881 1.264-1.258 1.938l-.016-.02-.232-.268c-.434-.498-1.275-.332-1.547.268a.955.955 0 0 0 .152 1.033l.244.281c.314.366.639.746 1.01 1.084.182.168.414.26.654.26a.973.973 0 0 0 .916-.67c.318-.951.973-1.881 1.607-2.779.148-.209.293-.415.432-.617a.884.884 0 0 0 .066-.924c-.31-.588-1.278-.68-1.673-.1z"/><path d="M33.431 0H5.179v45.057h34.699V6.251L33.431 0zm3.447 42.056H8.179V3h23.707v4.76h4.992v34.296z"/></g></symbol><symbol id="target" viewBox="0 0 297 297"><path d="M148.5 0C66.653 0 .067 66.616.067 148.499.067 230.383 66.653 297 148.5 297s148.433-66.617 148.433-148.501C296.933 66.616 230.347 0 148.5 0zm10.097 276.411v-61.274c0-5.575-4.521-10.097-10.097-10.097s-10.097 4.521-10.097 10.097v61.274c-62.68-4.908-112.845-55.102-117.747-117.814h61.207c5.575 0 10.097-4.521 10.097-10.097s-4.522-10.097-10.097-10.097H20.656C25.558 75.69 75.723 25.497 138.403 20.589v61.274c0 5.575 4.521 10.097 10.097 10.097s10.097-4.521 10.097-10.097V20.589c62.681 4.908 112.846 55.102 117.747 117.814h-61.207c-5.575 0-10.097 4.521-10.097 10.097s4.521 10.097 10.097 10.097h61.207c-4.903 62.713-55.068 112.906-117.747 117.814z"/></symbol><symbol id="telephone" viewBox="0 0 473.2 473.2"><path d="M438.034 66.5c-15.5-18.3-36.2-29-50.3-35.5-34.5-15.9-71.8-25.2-117.5-29.4-11.9-1-23.8-1.6-35.5-1.6-42.8 0-84.9 7.1-125.3 21.1-19.5 6.9-44.7 17.3-65.8 35.8-15.9 14.2-23.7 31.6-22.8 51.7v.6c.6 6.5.5 13.2.3 20.3-.1 4.8-.2 9.9 0 14.9.5 24.2 16.9 40.4 40.7 40.4h64.1c23.4 0 39.2-16.1 39.2-40v-35.4c2-.6 4-1.3 6-1.9 3.1-1 6-2 8.6-2.6 17.9-4 36.3-6 56.1-6 10.8 0 22.2.6 33.8 1.8 15.8 1.8 28 4.5 39 8.7-.3 8.8-.3 17.4-.2 25.7v9.7c0 24.7 16 40.7 40.7 40.7h31.3c3.6 0 7.2 0 10.7.1 3.6 0 7.1.1 10.7.1 4 0 7.5-.1 10.8-.2 23.3-.1 39.3-16 39.8-39.7v-39.6c.1-14.9-4.8-28.3-14.4-39.7zm-9.5 78.9c-.2 7.4-3.1 16.1-16 16.1h-.4c-3 .1-6.3.2-10.1.2-3.5 0-6.9 0-10.4-.1-3.6 0-7.3-.1-11-.1h-31.3c-11.6 0-16.7-5.2-16.7-16.7v-9.9c-.1-9.7-.1-18.9.4-28.4v-.7c0-10.4-6.1-14.6-10.6-16.9-.3-.1-.5-.2-.8-.4-14-5.8-29.1-9.4-49-11.7h-.2c-12.5-1.3-24.7-1.9-36.3-1.9-21.3 0-41.9 2.2-61.3 6.5-3.9.9-7.5 2.1-11 3.2-3.1 1-6 2-8.6 2.6l-1.2.3c-4.7 1.6-12.6 6-12.6 17.9v39.3c0 7.3-2.6 16-15.2 16h-64.3c-10.9 0-16.5-5.7-16.7-17v-.1c-.1-4.5-.1-9 0-13.8.1-7.3.3-14.8-.4-22.6-.5-12.9 4.1-22.9 14.8-32.4 18-15.8 40.4-25 57.9-31.1 37.7-13.1 77.2-19.8 117.3-19.8 11 0 22.2.5 33.3 1.5 42.9 4 77.7 12.7 109.6 27.3 19.5 8.9 32.5 17.9 42 29.2 5.9 7.1 8.8 15 8.8 24.3v39.2zm-190.2 64.9c-20.5 0-37.1 16.7-37.1 37.1s16.7 37.1 37.1 37.1 37.1-16.7 37.1-37.1-16.6-37.1-37.1-37.1zm0 50.2c-7.2 0-13.1-5.9-13.1-13.1s5.9-13.1 13.1-13.1 13.1 5.9 13.1 13.1c.1 7.2-5.8 13.1-13.1 13.1zm98.6-50.2c-20.5 0-37.1 16.7-37.1 37.1s16.7 37.1 37.1 37.1 37.1-16.7 37.1-37.1-16.6-37.1-37.1-37.1zm0 50.2c-7.2 0-13.1-5.9-13.1-13.1s5.9-13.1 13.1-13.1 13.1 5.9 13.1 13.1-5.9 13.1-13.1 13.1zm-197.2-50.2c-20.5 0-37.1 16.7-37.1 37.1s16.7 37.1 37.1 37.1 37.1-16.7 37.1-37.1-16.6-37.1-37.1-37.1zm0 50.2c-7.2 0-13.1-5.9-13.1-13.1s5.9-13.1 13.1-13.1 13.1 5.9 13.1 13.1c.1 7.2-5.8 13.1-13.1 13.1zm98.6 44.1c-20.5 0-37.1 16.7-37.1 37.1s16.7 37.1 37.1 37.1 37.1-16.7 37.1-37.1-16.6-37.1-37.1-37.1zm0 50.3c-7.2 0-13.1-5.9-13.1-13.1s5.9-13.1 13.1-13.1 13.1 5.9 13.1 13.1c.1 7.2-5.8 13.1-13.1 13.1zm98.6-50.3c-20.5 0-37.1 16.7-37.1 37.1s16.7 37.1 37.1 37.1 37.1-16.7 37.1-37.1-16.6-37.1-37.1-37.1zm0 50.3c-7.2 0-13.1-5.9-13.1-13.1s5.9-13.1 13.1-13.1 13.1 5.9 13.1 13.1-5.9 13.1-13.1 13.1zm-197.2-50.3c-20.5 0-37.1 16.7-37.1 37.1s16.7 37.1 37.1 37.1 37.1-16.7 37.1-37.1-16.6-37.1-37.1-37.1zm0 50.3c-7.2 0-13.1-5.9-13.1-13.1s5.9-13.1 13.1-13.1 13.1 5.9 13.1 13.1c.1 7.2-5.8 13.1-13.1 13.1zm98.6 44.1c-20.5 0-37.1 16.7-37.1 37.1s16.7 37.1 37.1 37.1 37.1-16.7 37.1-37.1-16.6-37.1-37.1-37.1zm0 50.2c-7.2 0-13.1-5.9-13.1-13.1s5.9-13.1 13.1-13.1 13.1 5.9 13.1 13.1-5.8 13.1-13.1 13.1zm98.6-50.2c-20.5 0-37.1 16.7-37.1 37.1s16.7 37.1 37.1 37.1 37.1-16.7 37.1-37.1-16.6-37.1-37.1-37.1zm0 50.2c-7.2 0-13.1-5.9-13.1-13.1s5.9-13.1 13.1-13.1 13.1 5.9 13.1 13.1-5.9 13.1-13.1 13.1zm-197.2-50.2c-20.5 0-37.1 16.7-37.1 37.1s16.7 37.1 37.1 37.1 37.1-16.7 37.1-37.1-16.6-37.1-37.1-37.1zm0 50.2c-7.2 0-13.1-5.9-13.1-13.1s5.9-13.1 13.1-13.1 13.1 5.9 13.1 13.1-5.8 13.1-13.1 13.1z"/></symbol><symbol id="time" viewBox="0 0 19.5 19.5"><g fill-rule="evenodd"><path d="M9.75 0C4.374 0 0 4.374 0 9.75s4.374 9.75 9.75 9.75 9.75-4.374 9.75-9.75S15.126 0 9.75 0zm0 18C5.201 18 1.5 14.299 1.5 9.75c0-4.549 3.701-8.25 8.25-8.25C14.299 1.5 18 5.201 18 9.75 18 14.299 14.299 18 9.75 18z"/><path d="M10.5 9.387V4.308a.75.75 0 0 0-1.5 0V9.75c0 .229.105.446.285.589l4.471 3.53a.752.752 0 0 0 1.054-.124.75.75 0 0 0-.124-1.054L10.5 9.387z"/></g></symbol><symbol id="vk" viewBox="0 0 94 94"><path d="M89 0H5a5 5 0 0 0-5 5v84a5 5 0 0 0 5 5h84a5 5 0 0 0 5-5V5a5 5 0 0 0-5-5zM74.869 52.943c2.562 2.5 5.271 4.854 7.572 7.617 1.018 1.22 1.978 2.48 2.709 3.899 1.041 2.024.101 4.247-1.713 4.366l-11.256-.003c-2.906.239-5.22-.931-7.172-2.918-1.555-1.585-3.001-3.277-4.5-4.914-.611-.673-1.259-1.306-2.025-1.806-1.534-.996-2.867-.692-3.748.909-.896 1.63-1.103 3.438-1.185 5.255-.125 2.655-.925 3.348-3.588 3.471-5.69.268-11.091-.596-16.108-3.463-4.429-2.53-7.854-6.104-10.838-10.146-5.816-7.883-10.27-16.536-14.27-25.437-.901-2.005-.242-3.078 1.967-3.119 3.676-.073 7.351-.063 11.022-.004 1.496.023 2.485.879 3.058 2.289 1.985 4.885 4.421 9.533 7.471 13.843.813 1.147 1.643 2.292 2.823 3.103 1.304.896 2.298.601 2.913-.854.393-.928.563-1.914.647-2.906.292-3.396.327-6.792-.177-10.175-.315-2.116-1.507-3.483-3.617-3.883-1.074-.204-.917-.602-.395-1.215.906-1.062 1.76-1.718 3.456-1.718l12.721-.002c2.006.392 2.452 1.292 2.725 3.311l.012 14.133c-.021.782.391 3.098 1.795 3.61 1.123.371 1.868-.53 2.54-1.244 3.048-3.235 5.22-7.056 7.167-11.009.857-1.743 1.6-3.549 2.32-5.356.533-1.337 1.367-1.995 2.875-1.971l12.246.013c.36 0 .729.004 1.086.063 2.062.355 2.627 1.243 1.99 3.257-1.004 3.163-2.959 5.799-4.871 8.441-2.043 2.825-4.224 5.557-6.252 8.396-1.858 2.604-1.708 3.912.6 6.167z"/></symbol><symbol id="wallet" viewBox="0 0 373.01 373.01"><path d="M373.003 134.54s1.371-66.827-34.954-104.305C320.888 12.529 298.437 3.551 271.32 3.551H47.454C21.287 3.551 0 24.839 0 51.005v255.954c0 34.462 28.038 62.5 62.5 62.5h248c34.462 0 62.5-28.038 62.5-62.5l.003-172.419zM47.454 28.552H271.32c20.341 0 36.274 6.22 48.713 19.017 9.066 9.329 15.196 21.132 19.342 32.989-7.103-3.716-15.029-7.097-28.875-7.097H47.454C35.073 73.461 25 63.388 25 51.007s10.073-22.455 22.454-22.455zM348 215.298h-22.18c-6.904 0-12.5 5.597-12.5 12.5s5.596 12.5 12.5 12.5H348v25.804h-28.492c-20.678 0-37.5-16.822-37.5-37.5v-1.605c0-20.678 16.822-37.5 37.5-37.5H348v25.801zm0-50.803h-28.492c-34.462 0-62.5 28.038-62.5 62.5v1.604c0 34.463 28.038 62.5 62.5 62.5H348v15.859c0 20.678-16.822 37.5-37.5 37.5h-248c-20.678 0-37.5-16.822-37.5-37.5V92.799a47.162 47.162 0 0 0 22.454 5.661H310.5c20.678 0 37.5 16.822 37.5 37.5v28.535z"/></symbol><symbol id="yandex" viewBox="0 0 320 320"><g id="XMLID_233_"><path id="XMLID_235_" d="M227.184 0h-45.466c-46.063 0-92.541 34.014-92.541 110.004 0 39.361 16.683 70.017 47.263 87.451L80.468 298.762c-2.653 4.791-2.722 10.221-.185 14.525C82.76 317.49 87.288 320 92.395 320h28.311c6.432 0 11.448-3.109 13.852-8.555L187.037 208.8h3.83v98.407c0 6.935 5.852 12.793 12.778 12.793h24.735c7.767 0 13.191-5.424 13.191-13.19V14.002C241.572 5.758 235.656 0 227.184 0zm-36.316 163.204h-6.756c-26.197 0-41.837-21.384-41.837-57.202 0-44.537 19.757-60.405 38.247-60.405h10.346v117.607z"/></g></symbol></svg>