<svg xmlns="http://www.w3.org/2000/svg" width="612" height="792" viewBox="0 0 612 792"><circle fill="#EDEDED" cx="306" cy="396" r="306"/><circle fill="#FFF" cx="306" cy="396" r="252.198"/><path fill="#FFF200" d="M267.956 357.957l19.022 57.065 57.065 19.021 111.754-187.841z"/><path fill="#F7941D" d="M156.202 545.798l187.841-111.755-76.087-76.086z"/><path d="M306 214.417c-5.572 0-10.089-4.517-10.089-10.088v-20.176c0-5.571 4.517-10.088 10.089-10.088 5.571 0 10.088 4.517 10.088 10.088v20.176c0 5.571-4.516 10.088-10.088 10.088zm0 403.517c-5.572 0-10.089-4.517-10.089-10.088V587.67c0-5.571 4.517-10.089 10.089-10.089 5.571 0 10.088 4.518 10.088 10.089v20.176c0 5.572-4.516 10.088-10.088 10.088zm211.846-211.846H497.67c-5.571 0-10.088-4.517-10.088-10.088s4.517-10.088 10.088-10.088h20.176c5.571 0 10.089 4.517 10.089 10.088-.001 5.571-4.518 10.088-10.089 10.088zm-403.517 0H94.154c-5.571 0-10.089-4.517-10.089-10.088s4.518-10.088 10.089-10.088h20.176c5.571 0 10.088 4.517 10.088 10.088s-4.517 10.088-10.089 10.088z" fill="#EDEDED"/></svg>