<svg id="Слой_1" xmlns="http://www.w3.org/2000/svg" xmlns:xlink="http://www.w3.org/1999/xlink" viewBox="0 0 500 484"><style>.st0{opacity:.68;enable-background:new}.st1{fill:red}.st2{font-family:&apos;PFDinTextCompPro-Medium&apos;}.st3{font-size:22px}.st4{font-family:&apos;PFDinTextCompPro-Regular&apos;}.st5{font-size:16px}.st6,.st7{opacity:.71;enable-background:new}.st7{opacity:.64}</style><image width="500" height="484" xlink:href="floor-6.png" overflow="visible" id="img"/><g id="floors"><a id="_x31_"><path class="st0" d="M4 37.5l.3 111.3 27 .2-.3 91.2 72.7.1.3-20.6 72-.4L175.7 5 28.3 4.7v32.5z"/><g id="box"><path d="M-.7 38.1h180v112H-.7z"/><text transform="matrix(1.0137 0 0 1 14.298 71.423)" class="st1 st2 st3">Квартира №203</text><text transform="matrix(1.0137 0 0 1 14.298 99.773)" class="st1 st4 st5">Свободна</text><text transform="matrix(1.0137 0 0 1 14.298 130.326)" class="st1 st4 st5">Комнат: 2</text><text transform="matrix(1.0137 0 0 1 113.756 130.326)" class="st1 st4 st5">58,6 м</text></g></a><a id="_x32_"><path class="st6" d="M31 240.2l.3 90.6-28.8-.3.5 111.2 25.3.3v36.3h76v-2.6h72v-214l-72.3.3-.3-21.7z"/><g id="box_2_"><path d="M-.7 330.9h180v112H-.7z"/><text transform="matrix(1.0137 0 0 1 14.298 364.256)" class="st1 st2 st3">Квартира №203</text><text transform="matrix(1.0137 0 0 1 14.298 392.606)" class="st1 st4 st5">Свободна</text><text transform="matrix(1.0137 0 0 1 14.298 423.16)" class="st1 st4 st5">Комнат: 2</text><text transform="matrix(1.0137 0 0 1 113.756 423.16)" class="st1 st4 st5">58,6 м</text></g></a><a id="_x33_"><path class="st7" d="M176 262h148v181.3H175.7z"/><g id="box_1_"><path d="M159.8 295.3h180v112h-180z"/><text transform="matrix(1.0137 0 0 1 174.798 328.59)" class="st1 st2 st3">Квартира №203</text><text transform="matrix(1.0137 0 0 1 174.798 356.94)" class="st1 st4 st5">Свободна</text><text transform="matrix(1.0137 0 0 1 174.798 387.493)" class="st1 st4 st5">Комнат: 2</text><text transform="matrix(1.0137 0 0 1 274.256 387.493)" class="st1 st4 st5">58,6 м</text></g></a><a id="_x34_"><path class="st6" d="M324 261.5v218l146.7.2-.4-37.4 25 .7V331h-26l-.3-92-71.3-.3V219l-74.4-.7z"/><g id="box_4_"><path d="M319 336.6h180v112H319z"/><text transform="matrix(1.0137 0 0 1 333.965 369.923)" class="st1 st2 st3">Квартира №203</text><text transform="matrix(1.0137 0 0 1 333.965 398.273)" class="st1 st4 st5">Свободна</text><text transform="matrix(1.0137 0 0 1 333.965 428.826)" class="st1 st4 st5">Комнат: 2</text><text transform="matrix(1.0137 0 0 1 433.423 428.826)" class="st1 st4 st5">58,6 м</text></g></a><a id="_x35_"><path class="st0" d="M472.4 36.4V3.9L324 4.2l.7 214.3 73 .3-.7 19.7 71.7.9.6-91.2 27.1-.2.3-111.3z"/><g id="box_5_"><path d="M300 53.3h180v112H300z"/><text transform="matrix(1.0137 0 0 1 314.965 86.59)" class="st1 st2 st3">Квартира №203</text><text transform="matrix(1.0137 0 0 1 314.965 114.94)" class="st1 st4 st5">Свободна</text><text transform="matrix(1.0137 0 0 1 314.965 145.493)" class="st1 st4 st5">Комнат: 2</text><text transform="matrix(1.0137 0 0 1 414.423 145.493)" class="st1 st4 st5">58,6 м</text></g></a></g></svg>