<svg id="Слой_1" xmlns="http://www.w3.org/2000/svg" xmlns:xlink="http://www.w3.org/1999/xlink" viewBox="0 0 481 500"><style>.st0{opacity:.68;enable-background:new}.st1{fill:red}.st2{font-family:&apos;PFDinTextCompPro-Medium&apos;}.st3{font-size:22px}.st4{font-family:&apos;PFDinTextCompPro-Regular&apos;}.st5{font-size:16px}.st6{opacity:.71;enable-background:new}</style><image width="481" height="500" xlink:href="floor-4.png" overflow="visible" id="img"/><g id="floors"><a id="_x31_"><path class="st0" d="M16.5 60.5l.3 102.3h-17l.4 41 41.3-.3v60.7h135l-.3-204-68.4-1 .4-29.5H41.8v30.5z"/><g id="box"><path d="M1.5 86.1h180v112H1.5z"/><text transform="matrix(1.0137 0 0 1 16.464 119.422)" class="st1 st2 st3">Квартира №203</text><text transform="matrix(1.0137 0 0 1 16.464 147.773)" class="st1 st4 st5">Свободна</text><text transform="matrix(1.0137 0 0 1 16.464 178.326)" class="st1 st4 st5">Комнат: 2</text><text transform="matrix(1.0137 0 0 1 115.923 178.326)" class="st1 st4 st5">58,6 м</text></g></a><a id="_x32_"><path class="st6" d="M42.3 264.8v66l-25.8-.3.3 102 21 .3.4 31 135.3-.3.3-28.7 69 .4v-94.4h-7.6l-.4-113.6-59.3.3v37z"/><g id="box_2_"><path d="M48 301.9h180v112H48z"/><text transform="matrix(1.0137 0 0 1 62.964 335.256)" class="st1 st2 st3">Квартира №203</text><text transform="matrix(1.0137 0 0 1 62.964 363.606)" class="st1 st4 st5">Свободна</text><text transform="matrix(1.0137 0 0 1 62.964 394.16)" class="st1 st4 st5">Комнат: 2</text><text transform="matrix(1.0137 0 0 1 162.423 394.16)" class="st1 st4 st5">58,6 м</text></g></a><a id="_x33_"><path class="st0" d="M470.1 59.1l-.1 103.4-25.5-.1-.2 301.6-132.3-.3-.4-28h-68.9l1-94.4h-9V227.7l20.3.3-.3-28.7 55.3.2v-172l170.5-.5v32z"/><g id="box_1_"><path d="M255.5 239.6h180v112h-180z"/><text transform="matrix(1.0137 0 0 1 270.465 272.922)" class="st1 st2 st3">Квартира №203</text><text transform="matrix(1.0137 0 0 1 270.465 301.273)" class="st1 st4 st5">Свободна</text><text transform="matrix(1.0137 0 0 1 270.465 331.826)" class="st1 st4 st5">Комнат: 2</text><text transform="matrix(1.0137 0 0 1 369.923 331.826)" class="st1 st4 st5">58,6 м</text></g></a></g></svg>