<svg id="Слой_1" xmlns="http://www.w3.org/2000/svg" xmlns:xlink="http://www.w3.org/1999/xlink" viewBox="0 0 500 356"><style>.st0{opacity:.68;enable-background:new}.st1{fill:red}.st2{font-family:&apos;PFDinTextCompPro-Medium&apos;}.st3{font-size:22px}.st4{font-family:&apos;PFDinTextCompPro-Regular&apos;}.st5{font-size:16px}.st6{opacity:.71;enable-background:new}</style><image width="500" height="356" xlink:href="floor-3.png" overflow="visible" id="img"/><g id="floors"><a id="_x31_"><path class="st0" d="M1.5 38.5v315h60v-202H184v-131H60V38z"/><g id="box"><path d="M4 37.9h180v112H4z"/><text transform="matrix(1.0137 0 0 1 18.964 71.256)" class="st1 st2 st3">Квартира №203</text><text transform="matrix(1.0137 0 0 1 18.964 99.606)" class="st1 st4 st5">Свободна</text><text transform="matrix(1.0137 0 0 1 18.964 130.16)" class="st1 st4 st5">Комнат: 2</text><text transform="matrix(1.0137 0 0 1 118.423 130.16)" class="st1 st4 st5">58,6 м</text></g></a><a id="_x32_"><path class="st6" d="M61.5 151.3v202.2l60.2.2V321l63.3.3V186h-64.3v-35z"/><g id="box_2_"><path d="M34.7 197.9h180v112h-180z"/><text transform="matrix(1.0137 0 0 1 49.63 231.256)" class="st1 st2 st3">Квартира №203</text><text transform="matrix(1.0137 0 0 1 49.63 259.606)" class="st1 st4 st5">Свободна</text><text transform="matrix(1.0137 0 0 1 49.63 290.16)" class="st1 st4 st5">Комнат: 2</text><text transform="matrix(1.0137 0 0 1 149.09 290.16)" class="st1 st4 st5">58,6 м</text></g></a><a id="_x33_"><path class="st6" d="M313.3 186v139.5H185V186h128.3z"/><g id="box_3_"><path d="M160 199.9h180v112H160z"/><text transform="matrix(1.0137 0 0 1 174.965 233.256)" class="st1 st2 st3">Квартира №203</text><text transform="matrix(1.0137 0 0 1 174.965 261.606)" class="st1 st4 st5">Свободна</text><text transform="matrix(1.0137 0 0 1 174.965 292.16)" class="st1 st4 st5">Комнат: 2</text><text transform="matrix(1.0137 0 0 1 274.423 292.16)" class="st1 st4 st5">58,6 м</text></g></a><a id="_x34_"><path class="st6" d="M436.3 151.3v202.2L376 353l.3-32-63.5-.5V186h64.4v-35z"/><g id="box_4_"><path d="M284 196.9h180v112H284z"/><text transform="matrix(1.0137 0 0 1 298.965 230.256)" class="st1 st2 st3">Квартира №203</text><text transform="matrix(1.0137 0 0 1 298.965 258.606)" class="st1 st4 st5">Свободна</text><text transform="matrix(1.0137 0 0 1 298.965 289.16)" class="st1 st4 st5">Комнат: 2</text><text transform="matrix(1.0137 0 0 1 398.423 289.16)" class="st1 st4 st5">58,6 м</text></g></a><a id="_x35_"><path class="st0" d="M499 20.3V353h-63V151H314.5V2l121 .2V20z"/><g id="box_1_"><path d="M316 29.1h180v112H316z"/><text transform="matrix(1.0137 0 0 1 330.965 62.422)" class="st1 st2 st3">Квартира №203</text><text transform="matrix(1.0137 0 0 1 330.965 90.773)" class="st1 st4 st5">Свободна</text><text transform="matrix(1.0137 0 0 1 330.965 121.326)" class="st1 st4 st5">Комнат: 2</text><text transform="matrix(1.0137 0 0 1 430.423 121.326)" class="st1 st4 st5">58,6 м</text></g></a></g></svg>