<svg id="Слой_1" xmlns="http://www.w3.org/2000/svg" xmlns:xlink="http://www.w3.org/1999/xlink" viewBox="0 0 535 600"><style>.st0{opacity:.58}.st1{fill:red}.st2{font-family:&apos;PFDinTextCompPro-Medium&apos;}.st3{font-size:22px}.st4{font-family:&apos;PFDinTextCompPro-Regular&apos;}.st5{font-size:16px}.st6{opacity:.5}.st7{opacity:.6}</style><image width="535" height="600" xlink:href="floor-7.png" overflow="visible" id="img"/><g id="floors"><a id="_x31_"><path class="st0" d="M247.5 232.5v-102h22V63h-214l.5 170.3 62 .2z"/><g id="box"><path d="M62.3 91.8h180v112h-180z"/><text transform="matrix(1.0137 0 0 1 77.298 125.09)" class="st1 st2 st3">Квартира №203</text><text transform="matrix(1.0137 0 0 1 77.298 153.44)" class="st1 st4 st5">Свободна</text><text transform="matrix(1.0137 0 0 1 77.298 183.993)" class="st1 st4 st5">Комнат: 2</text><text transform="matrix(1.0137 0 0 1 176.756 183.993)" class="st1 st4 st5">58,6 м</text></g></a><a id="_x32_"><path class="st0" d="M291.5 234.5v-104h-22V63h218l.5 172.3z"/><g id="box_1_"><path d="M299.3 91.1h180v112h-180z"/><text transform="matrix(1.0137 0 0 1 314.298 124.423)" class="st1 st2 st3">Квартира №203</text><text transform="matrix(1.0137 0 0 1 314.298 152.773)" class="st1 st4 st5">Свободна</text><text transform="matrix(1.0137 0 0 1 314.298 183.326)" class="st1 st4 st5">Комнат: 2</text><text transform="matrix(1.0137 0 0 1 413.756 183.326)" class="st1 st4 st5">58,6 м</text></g></a><a id="_x33_"><path class="st6" d="M56 233.3h153v133.8H56z"/><g id="box_2_"><path d="M61.2 243h180v112h-180z"/><text transform="matrix(1.0137 0 0 1 76.215 276.34)" class="st1 st2 st3">Квартира №203</text><text transform="matrix(1.0137 0 0 1 76.215 304.69)" class="st1 st4 st5">Свободна</text><text transform="matrix(1.0137 0 0 1 76.215 335.243)" class="st1 st4 st5">Комнат: 2</text><text transform="matrix(1.0137 0 0 1 175.673 335.243)" class="st1 st4 st5">58,6 м</text></g></a><a id="_x34_"><path class="st7" d="M56 367h112.7v34h78.6v68.3h22.4V537H56.3z"/><g id="box_3_"><path d="M63.2 409h180v112h-180z"/><text transform="matrix(1.0137 0 0 1 78.215 442.34)" class="st1 st2 st3">Квартира №203</text><text transform="matrix(1.0137 0 0 1 78.215 470.69)" class="st1 st4 st5">Свободна</text><text transform="matrix(1.0137 0 0 1 78.215 501.243)" class="st1 st4 st5">Комнат: 2</text><text transform="matrix(1.0137 0 0 1 177.673 501.243)" class="st1 st4 st5">58,6 м</text></g></a><a id="_x35_"><path class="st7" d="M488 366.3H291.7v103.4l-22-.4V537l218-1.7z"/><g id="box_4_"><path d="M298.2 401h180v112h-180z"/><text transform="matrix(1.0137 0 0 1 313.214 434.34)" class="st1 st2 st3">Квартира №203</text><text transform="matrix(1.0137 0 0 1 313.214 462.69)" class="st1 st4 st5">Свободна</text><text transform="matrix(1.0137 0 0 1 313.214 493.243)" class="st1 st4 st5">Комнат: 2</text><text transform="matrix(1.0137 0 0 1 412.673 493.243)" class="st1 st4 st5">58,6 м</text></g></a></g></svg>