<svg id="Слой_1" xmlns="http://www.w3.org/2000/svg" xmlns:xlink="http://www.w3.org/1999/xlink" viewBox="0 0 500 356"><style>.st0{opacity:.68}.st1{fill:red}.st2{font-family:&apos;PFDinTextCompPro-Medium&apos;}.st3{font-size:22px}.st4{font-family:&apos;PFDinTextCompPro-Regular&apos;}.st5{font-size:16px}.st6{opacity:.71}</style><image width="500" height="356" xlink:href="floor-2.png" overflow="visible" id="img"/><g id="floors"><a id="_x31_"><path class="st0" d="M3.5 38.5v315h60v-202H186v-131H62V38z"/><g id="box"><path d="M4 28.9h180v112H4z"/><text transform="matrix(1.0137 0 0 1 18.964 62.256)" class="st1 st2 st3">Квартира №203</text><text transform="matrix(1.0137 0 0 1 18.964 90.606)" class="st1 st4 st5">Свободна</text><text transform="matrix(1.0137 0 0 1 18.964 121.16)" class="st1 st4 st5">Комнат: 2</text><text transform="matrix(1.0137 0 0 1 118.423 121.16)" class="st1 st4 st5">58,6 м</text></g></a><a id="_x32_"><path class="st6" d="M63.5 151.3v202.2H186V186h-64.3v-35z"/><g id="box_2_"><path d="M34.7 212.9h180v112h-180z"/><text transform="matrix(1.0137 0 0 1 49.631 246.256)" class="st1 st2 st3">Квартира №203</text><text transform="matrix(1.0137 0 0 1 49.631 274.606)" class="st1 st4 st5">Свободна</text><text transform="matrix(1.0137 0 0 1 49.631 305.16)" class="st1 st4 st5">Комнат: 2</text><text transform="matrix(1.0137 0 0 1 149.09 305.16)" class="st1 st4 st5">58,6 м</text></g></a><a id="_x33_"><path class="st6" d="M313.3 186v167.5H186V186h127.3z"/><g id="box_3_"><path d="M160 212.9h180v112H160z"/><text transform="matrix(1.0137 0 0 1 174.964 246.256)" class="st1 st2 st3">Квартира №203</text><text transform="matrix(1.0137 0 0 1 174.964 274.606)" class="st1 st4 st5">Свободна</text><text transform="matrix(1.0137 0 0 1 174.964 305.16)" class="st1 st4 st5">Комнат: 2</text><text transform="matrix(1.0137 0 0 1 274.423 305.16)" class="st1 st4 st5">58,6 м</text></g></a><a id="_x34_"><path class="st6" d="M436.3 151.3v202.2H313.8V186h64.4v-35z"/><g id="box_4_"><path d="M285 212.9h180v112H285z"/><text transform="matrix(1.0137 0 0 1 299.964 246.256)" class="st1 st2 st3">Квартира №203</text><text transform="matrix(1.0137 0 0 1 299.964 274.606)" class="st1 st4 st5">Свободна</text><text transform="matrix(1.0137 0 0 1 299.964 305.16)" class="st1 st4 st5">Комнат: 2</text><text transform="matrix(1.0137 0 0 1 399.423 305.16)" class="st1 st4 st5">58,6 м</text></g></a><a id="_x35_"><path class="st0" d="M498 20.3V354h-62V151H314.5V2l121 .2V20z"/><g id="box_1_"><path d="M316 29.1h180v112H316z"/><text transform="matrix(1.0137 0 0 1 330.964 62.422)" class="st1 st2 st3">Квартира №203</text><text transform="matrix(1.0137 0 0 1 330.964 90.773)" class="st1 st4 st5">Свободна</text><text transform="matrix(1.0137 0 0 1 330.964 121.326)" class="st1 st4 st5">Комнат: 2</text><text transform="matrix(1.0137 0 0 1 430.423 121.326)" class="st1 st4 st5">58,6 м</text></g></a></g></svg>