<svg id="Слой_1" xmlns="http://www.w3.org/2000/svg" xmlns:xlink="http://www.w3.org/1999/xlink" viewBox="0 0 500 470"><style>.st0{opacity:.69;enable-background:new}.st1{fill:red}.st2{font-family:&apos;PFDinTextCompPro-Medium&apos;}.st3{font-size:22px}.st4{font-family:&apos;PFDinTextCompPro-Regular&apos;}.st5{font-size:16px}.st6{opacity:.7;enable-background:new}</style><image width="500" height="470" xlink:href="floor-1.png" overflow="visible" id="img"/><g id="floors"><a id="_x31_"><path class="st0" d="M7.3 422.9V106h59.5V89.3h123v129.6H253v169.4H128.8v35.1z"/><g id="box"><path d="M33.5 246.9h180v112h-180z"/><text transform="matrix(1.0137 0 0 1 48.464 280.256)" class="st1 st2 st3">Квартира №203</text><text transform="matrix(1.0137 0 0 1 48.464 308.607)" class="st1 st4 st5">Свободна</text><text transform="matrix(1.0137 0 0 1 48.464 339.16)" class="st1 st4 st5">Комнат: 2</text><text transform="matrix(1.0137 0 0 1 147.923 339.16)" class="st1 st4 st5">58,6 м</text></g></a><a id="_x32_"><path class="st6" d="M250.7 217.9v169.3h124.6v36.2h124V53.9h-38.2v33.4h-24.6V70.1l-57.9.7.2 42.2-63.1.4-.2 104.6z"/><g id="box_1_"><path d="M287.8 246.6h180v112h-180z"/><text transform="matrix(1.0137 0 0 1 302.798 279.923)" class="st1 st2 st3">Квартира №203</text><text transform="matrix(1.0137 0 0 1 302.798 308.274)" class="st1 st4 st5">Свободна</text><text transform="matrix(1.0137 0 0 1 302.798 338.827)" class="st1 st4 st5">Комнат: 2</text><text transform="matrix(1.0137 0 0 1 402.256 338.827)" class="st1 st4 st5">58,6 м</text></g></a></g></svg>