<svg id="Слой_1" xmlns="http://www.w3.org/2000/svg" xmlns:xlink="http://www.w3.org/1999/xlink" viewBox="0 0 1185 757"><style>.st0{opacity:.63;fill:#fff}.st1{font-family:&apos;PFDinTextCompPro-Medium&apos;}.st2{font-size:14px}</style><image width="1185" height="757" xlink:href="apartment-3.jpg" overflow="visible" id="img"/><g id="_x31_"><path class="st0" d="M553 632.5V691l43 26 394-55-.5-55-394 46z"/><text transform="translate(769 664.333)" class="st1 st2">1 ЭТАЖ</text></g><g id="_x32_"><path class="st0" d="M553 577.5v55l42.5 20.5 394-46-.5-52.5L593 594z"/><text transform="translate(766.5 608.333)" class="st1 st2">1 ЭТАЖ</text></g><g id="_x33_"><path class="st0" d="M554 527l-1 50.5 41.5 16.5L989 554.5V506l-393.5 33z"/><text transform="translate(766 553.833)" class="st1 st2">1 ЭТАЖ</text></g><g id="_x34_"><path class="st0" d="M554 476v51l41.5 12L989 506l-.5-50.5L596 484z"/><text transform="translate(765 501.333)" class="st1 st2">1 ЭТАЖ</text></g><g id="_x35_"><path class="st0" d="M553.5 423.5l.5 52.5 42 8 392.5-28.5-.5-47.5-394.5 21.5z"/><text transform="translate(765.5 449.333)" class="st1 st2">1 ЭТАЖ</text></g><g id="_x36_"><path class="st0" d="M553.5 370.5v53l40 6L988 408v-49.5L593 376z"/><text transform="translate(765 397.333)" class="st1 st2">1 ЭТАЖ</text></g><g id="_x37_"><path class="st0" d="M554 320.5l-.5 50L593 376l395-17.5v-49l-393 15z"/><text transform="translate(762 345.833)" class="st1 st2">1 ЭТАЖ</text></g></svg>