<svg xmlns="http://www.w3.org/2000/svg" xmlns:xlink="http://www.w3.org/1999/xlink" viewBox="0 0 1185 757"><style>.st0{opacity:.42;fill:#6fa521}.st1{fill:#fff}.st2{font-family:&apos;MyriadPro-Regular&apos;}.st3{font-size:12px}.st4{font-size:11.3258px}</style><image width="1185" height="757" xlink:href="apartment.jpg" overflow="visible" id="img"/><g id="_x31_"><path class="st0" d="M644.5 740.3H909V703H645l-38.7 2v35.3z"/><text transform="translate(748.667 728.333)" class="st1 st2 st3">1 этаж</text></g><g id="_x32_"><path class="st0" d="M645 703h264v-29.7H644.7l-38.4 3.7v28z"/><text transform="translate(748.667 695)" class="st1 st2 st3">1 этаж</text></g><g id="_x33_"><path class="st0" d="M606.3 677l38.4-3.7H909v-28H644.3l-38 7.7z"/><text transform="matrix(1.0595 0 0 1 748.667 666.782)" class="st1 st2 st4">1 этаж</text></g><g id="_x34_"><path class="st0" d="M606.3 653l38-7.7H909v-29.1H645.2L606.3 628z"/><text transform="matrix(1.0595 0 0 1 748.5 636.615)" class="st1 st2 st4">1 этаж</text></g><g id="_x35_"><path class="st0" d="M606.3 628l38.9-11.8 263.8.1v-29.1H645.2L606.3 604z"/><text transform="matrix(1.0595 0 0 1 748.5 607.615)" class="st1 st2 st4">1 этаж</text></g><g id="_x36_"><path class="st0" d="M606.3 604l38.9-16.8H909V560l-264-1.3-38.7 21.4z"/><text transform="matrix(1.0595 0 0 1 748.5 579.615)" class="st1 st2 st4">1 этаж</text></g><g id="_x37_"><path class="st0" d="M606.3 580.1l38.7-21.4 264 1.3v-27l-264-3.3-38.7 25.4z"/><text transform="matrix(1.0595 0 0 1 748.5 551.615)" class="st1 st2 st4">1 этаж</text></g><g id="_x38_"><path class="st0" d="M606.3 555.1l38.7-25.4 264 3.3v-29.1l-264-3.2-38.7 29.4z"/><text transform="matrix(1.0595 0 0 1 748.5 522.615)" class="st1 st2 st4">1 этаж</text></g><g id="_x39_"><path class="st0" d="M606.3 530.1l38.7-29.4 264 3.2v-29l-264-4.2-38.7 34.4z"/><text transform="matrix(1.0595 0 0 1 748.5 493.615)" class="st1 st2 st4">1 этаж</text></g><g id="_x31_0"><path class="st0" d="M606.3 505.1l38.7-34.4 264 4.2.5-28.4-264.5-3.8-38.7 40.4z"/><text transform="matrix(1.0595 0 0 1 748.5 464.615)" class="st1 st2 st4">1 этаж</text></g><g id="_x31_1"><path class="st0" d="M606.3 483.1l38.7-40.4 264.5 3.8-.5-27.7-264-5.1-38.7 43.4z"/><text transform="matrix(1.0595 0 0 1 748.5 436.615)" class="st1 st2 st4">1 этаж</text></g><g id="_x31_2"><path class="st0" d="M606.3 457.1l38.7-43.4 264 5.1v-29l-264-5.1-38.7 47.4z"/><text transform="matrix(1.0595 0 0 1 748.5 408.615)" class="st1 st2 st4">1 этаж</text></g><g id="_x31_3"><path class="st0" d="M606.3 432.1l38.7-47.4 264 5.1v-28l-264-6.1-38.7 53.4z"/><text transform="matrix(1.0595 0 0 1 748.5 379.615)" class="st1 st2 st4">1 этаж</text></g><g id="_x31_4"><path class="st0" d="M606.3 409.1l38.7-53.4 264 6.1v-28l-264-7.1-38.7 56.4z"/><text transform="matrix(1.0595 0 0 1 748.5 350.615)" class="st1 st2 st4">1 этаж</text></g><g id="_x31_5"><path class="st0" d="M606.3 383.1l38.7-56.4 264 7.1v-28l-264-8.1-38.7 60.4z"/><text transform="matrix(1.0595 0 0 1 748.5 321.615)" class="st1 st2 st4">1 этаж</text></g><g id="_x31_6"><path class="st0" d="M606.3 358.1l38.7-60.4 264 8.1v-28l-264-9.1-38.7 64.9z"/><text transform="matrix(1.0595 0 0 1 748.5 293.615)" class="st1 st2 st4">1 этаж</text></g><g id="_x31_7"><path class="st0" d="M606.3 333.6l38.7-64.9 264 9.7v-27.6l-264-11.1-38.7 69.9z"/><text transform="matrix(1.0589 .03769 -.03557 .9994 748.392 265.031)" class="st1 st2 st4">1 этаж</text></g><g id="_x31_8"><path class="st0" d="M606.3 309.6l38.7-69.9 264 11.1v-28l-264-12.1-38.7 72.9z"/><text transform="matrix(1.0589 .03769 -.03557 .9994 748.392 236.031)" class="st1 st2 st4">1 этаж</text></g><g id="_x31_9"><path class="st0" d="M606.3 283.6l38.7-72.9 264 12.1v-30l-264-12.1-38.7 73.9z"/><text transform="matrix(1.0589 .03769 -.03557 .9994 748.392 208.031)" class="st1 st2 st4">1 этаж</text></g><g id="_x32_0"><path class="st0" d="M606.3 254.6l38.7-73.9 264 12.1v-32l-264-14.1-38.7 77.6z"/><text transform="matrix(1.0589 .03769 -.03557 .9994 748.392 177.031)" class="st1 st2 st4">1 этаж</text></g><g id="_x32_1"><path class="st0" d="M879 159.1v-20.9l-209.5-10.3-12.4 19.4 11.6.6z"/><text transform="matrix(1.0589 .03769 -.03557 .9994 749.392 149.031)" class="st1 st2 st4">1 этаж</text></g><g id="_x32_2"><path class="st0" d="M645.6 146.7l23.9-45.8L879 112.2v26l-209.5-10.3-12.4 19.4z"/><text transform="matrix(1.0589 .03769 -.03557 .9994 749.392 126.031)" class="st1 st2 st4">1 этаж</text></g><g id="_x32_3"><path class="st0" d="M669.5 71.9L879 84.2v28l-209.5-11.3-37.9 72.7V153z"/><text transform="matrix(1.0589 .03769 -.03557 .9994 749.392 99.031)" class="st1 st2 st4">1 этаж</text></g><g id="_x32_4"><path class="st0" d="M668.8 42.9L879 55.3v28.9L669.5 71.9 631.6 153v-26z"/><text transform="matrix(1.0589 .03769 -.03557 .9994 749.392 70.031)" class="st1 st2 st4">1 этаж</text></g><g id="_x32_5"><path class="st0" d="M668.8 11.9L879 25.3v30L668.8 42.9 631.6 127v-22z"/><text transform="matrix(1.0589 .03769 -.03557 .9994 749.392 39.031)" class="st1 st2 st4">1 этаж</text></g></svg>