<svg id="Слой_1" xmlns="http://www.w3.org/2000/svg" xmlns:xlink="http://www.w3.org/1999/xlink" viewBox="0 0 1185 757"><style>.st0{opacity:.63;fill:#fff;enable-background:new}.st1{font-family:&apos;PFDinTextCompPro-Medium&apos;}.st2{font-size:14px}.st3{opacity:.73;fill:#fff;enable-background:new}.st4{opacity:.82}</style><image width="1185" height="757" xlink:href="apartment-2.jpg" overflow="visible" id="img"/><g id="_x31_"><path class="st0" d="M107.5 607l55.5 58.5 18.3-1 7.7 7.3 364-39.3 1 56L190 734l-8-8-16 4-59-72.5z"/><text transform="translate(355.666 685)" class="st1 st2">1 ЭТАЖ</text></g><g id="_x32_"><path class="st3" d="M108.3 555.3l52 51.4 22-1.2 6.7 4.3 363.7-34 .3 56.7-364 39.3-7.7-7.3-18.3 1-55.5-58.5z"/><text transform="translate(356.333 627.666)" class="st1 st2">1 ЭТАЖ</text></g><g id="_x33_"><path class="st3" d="M108.5 505.7l52.2 41.6h23.1l5.9 4.9 363-27.7v51.3l-363.7 34-6.7-4.3-22 1.2-52-51.4z"/><text transform="translate(356.666 568.333)" class="st1 st2">1 ЭТАЖ</text></g><g id="_x34_"><path class="st3" d="M108.7 455.8l53.8 37.5h23.2l4 2.4L553 472.5l-.3 52-363 27.7-5.9-4.9h-23.1l-52.2-41.6z"/><text transform="translate(358.666 513)" class="st1 st2">1 ЭТАЖ</text></g><g id="_x35_" class="st4"><path class="st3" d="M109 408.8l52.8 29 24.4 1.5 3.6.7 363.7-19.2-.5 51.7L190.3 496l-4.6-2.7h-23.2l-53.8-37.5z"/><text transform="translate(359.166 461.75)" class="st1 st2">1 ЭТАЖ</text></g><g id="_x36_" class="st4"><path class="st3" d="M108 357.7l52 22.3 24.7 3.3 5.3-1 363.5-13.8v52.3L189.8 440l-3.6-.7-24.4-1.5-52.8-29z"/><text transform="translate(358.5 408.416)" class="st1 st2">1 ЭТАЖ</text></g><g id="_x37_" class="st4"><path class="st3" d="M107.8 312.8l52 13.7 24.7.5 5.3 1.8L553 318.3l.5 50.2L190 382.3l-5.3 1L160 380l-52-22.3z"/><text transform="translate(358.25 354.916)" class="st1 st2">1 ЭТАЖ</text></g><g id="_x38_" class="st4"><path class="st3" d="M109.5 262l49.8 7.5 26 .3 5.2-.8 375.5-6v44.3l-13-1.3v12.3l-363.2 10.5-5.3-1.8-24.7-.5-52-13.7z"/><text transform="translate(358 299.916)" class="st1 st2">1 ЭТАЖ</text></g><g id="_x39_" class="st4"><path class="st3" d="M110.3 211.5l52.2-.7 25-.3 3.5-.5 374.3-.7.7 53.7-375.5 6-5.2.8-26-.3-49.8-7.5z"/><text transform="translate(361 242.166)" class="st1 st2">1 ЭТАЖ</text></g><g id="_x31_0" class="st4"><path class="st3" d="M110.7 167l34.6-2 14.4-4H190l375.7 4.3-.4 44-377.8 1.2-77.2 1z"/><text transform="translate(359.333 191.166)" class="st1 st2">1 ЭТАЖ</text></g><g id="_x31_1" class="st4"><path class="st3" d="M110.3 112.8l13.2-3 23.5-.5-.2-7 17.5-5.3 401.5 11.3-.1 57L190 161h-30.3l-14.4 4-34.6 2z"/><text transform="translate(359.666 138.666)" class="st1 st2">1 ЭТАЖ</text></g><g id="_x31_2" class="st4"><path class="st3" d="M178.7 97.3L179 68l60-22 263.5 10.5.5 49.5z"/><text transform="translate(358.666 83)" class="st1 st2">1 ЭТАЖ</text></g></svg>